<svg width="639" height="419" viewBox="0 0 639 419" fill="none" xmlns="http://www.w3.org/2000/svg">
<g clip-path="url(#clip0_21_3135)">
<path d="M156.699 416.848H116.93C110.986 416.848 106.15 412.001 106.15 406.043V289.047C106.15 283.089 110.986 278.242 116.93 278.242H156.699C162.643 278.242 167.479 283.089 167.479 289.047V406.043C167.479 412.001 162.643 416.848 156.699 416.848Z" fill="#2E2E2E"/>
<path d="M546.316 417.077H506.547C500.603 417.077 495.768 412.23 495.768 406.272V289.277C495.768 283.319 500.603 278.472 506.547 278.472H546.316C552.26 278.472 557.096 283.319 557.096 289.277V406.272C557.096 412.23 552.26 417.077 546.316 417.077Z" fill="#2E2E2E"/>
<path d="M166.127 126.137L107.564 209.503C100.498 219.562 97.6959 232.019 99.7725 244.144L117.571 348.077C121.394 370.4 140.706 386.716 163.304 386.716H507.436C531.962 386.716 552.252 367.587 553.751 343.051L560.619 230.607C561.437 217.22 556.449 204.132 546.937 194.701L464.791 113.258C455.774 104.318 443.5 99.4672 430.822 99.8335L202.731 106.423C188.112 106.846 174.547 114.151 166.127 126.137H166.127Z" fill="#DE6452"/>
<path d="M175.048 140.936L163.85 161.921C156.715 175.293 167.118 191.084 182.947 190.908L463.281 187.787C480.501 187.595 490.199 168.992 479.9 155.908L462.249 133.481C458.178 128.309 451.724 125.313 444.918 125.437L193.433 130C185.635 130.141 178.563 134.348 175.048 140.936H175.048Z" fill="white"/>
<path d="M525.961 184.727C524.15 184.727 522.386 184.054 521.031 182.825C519.496 181.432 518.615 179.443 518.615 177.368L518.616 172.755L519.539 151.497C519.71 147.55 522.932 144.458 526.874 144.458H556.057C558.775 144.458 561.257 145.95 562.537 148.354L566.014 154.888C567.113 156.955 567.175 159.356 566.183 161.476C565.192 163.597 563.31 165.085 561.023 165.558L539.021 170.121C536.746 170.592 534.953 172.281 534.342 174.529L533.042 179.304C532.247 182.225 529.694 184.389 526.689 184.69C526.446 184.715 526.203 184.727 525.961 184.727Z" fill="#DE6452"/>
<path d="M131.748 184.69C128.743 184.389 126.189 182.225 125.394 179.304L124.095 174.529C123.484 172.281 121.69 170.592 119.416 170.121L97.4138 165.558C95.1262 165.085 93.2449 163.597 92.2532 161.476C91.2615 159.356 91.3231 156.955 92.4223 154.888L95.8995 148.353C97.179 145.95 99.6615 144.458 102.379 144.458H131.562C135.505 144.458 138.726 147.55 138.898 151.497L139.82 172.755L139.821 177.368C139.821 179.443 138.94 181.432 137.405 182.825C136.051 184.054 134.287 184.727 132.475 184.727C132.234 184.727 131.99 184.715 131.748 184.69L131.748 184.69Z" fill="#DE6452"/>
<path d="M172.289 275.832C188.228 275.832 201.15 262.881 201.15 246.905C201.15 230.93 188.228 217.979 172.289 217.979C156.35 217.979 143.428 230.93 143.428 246.905C143.428 262.881 156.35 275.832 172.289 275.832Z" fill="white"/>
<path d="M504.786 276.434C520.726 276.434 533.647 263.484 533.647 247.508C533.647 231.532 520.726 218.582 504.786 218.582C488.847 218.582 475.926 231.532 475.926 247.508C475.926 263.484 488.847 276.434 504.786 276.434Z" fill="white"/>
<path d="M133.873 92.368C136.531 93.859 138.794 95.9661 140.472 98.5133L159.423 109.808L191.622 124.924C191.622 124.924 199.216 97.868 208.288 96.1399C217.36 94.4119 232.328 114.464 232.328 114.464C232.328 114.464 206.236 156.807 194.871 152.465C183.505 148.124 158.111 127.039 158.111 127.039L154.793 124.337L133.694 110.269C130.653 110.083 127.701 109.171 125.084 107.607C118.485 103.786 115.103 97.2762 117.53 93.0676C119.957 88.8587 127.272 88.545 133.873 92.368V92.368Z" fill="#A0616A"/>
<path d="M196.634 104.111L213.101 84.6827L223.049 86.1191C235.251 87.881 242.034 101.221 236.286 112.152L230.555 123.052L196.634 104.111Z" fill="#E6E6E6"/>
<path d="M143.09 129.548L114.108 89.5037C113.678 88.9125 113.783 88.0839 114.347 87.6176L121.299 81.8636C121.601 81.6141 121.996 81.5042 122.382 81.5614C122.769 81.6192 123.116 81.8378 123.334 82.1649L152.129 125.48C152.367 125.835 152.427 126.273 152.294 126.68C152.162 127.088 151.855 127.406 151.453 127.554L144.688 130.036C144.19 130.219 143.635 130.096 143.259 129.74C143.197 129.682 143.14 129.618 143.09 129.548Z" fill="#3F3D56"/>
<path d="M145.394 127.1L115.399 88.1321C114.955 87.5566 114.985 86.8071 115.469 86.4258L121.433 81.7213C121.692 81.5174 122.048 81.4486 122.41 81.532C122.772 81.616 123.11 81.8439 123.338 82.1608L153.423 124.106C153.671 124.45 153.761 124.855 153.671 125.217C153.581 125.58 153.324 125.846 152.964 125.949L146.91 127.675C146.465 127.802 145.942 127.645 145.565 127.289C145.504 127.231 145.446 127.168 145.394 127.1H145.394Z" fill="#E6E6E6"/>
<path d="M133.426 370.759L120.384 398.966L99.1055 389.335L115.579 368.007L133.426 370.759Z" fill="#A0616A"/>
<path d="M111.461 390.023L127.248 387.959C127.248 387.959 138.231 414.102 129.994 415.478C121.757 416.854 57.2346 423.045 57.2346 414.79C57.2346 406.534 84.0046 396.214 84.0046 396.214L102.538 383.143L111.461 390.023Z" fill="#2F2E41"/>
<path d="M235.701 189.134C235.701 189.134 254.92 218.029 213.736 235.916L169.806 299.21L133.426 378.327L111.461 370.071L149.9 250.363L171.865 196.701L182.161 180.19L235.701 189.134Z" fill="#2F2E41"/>
<path d="M82.9849 295.611L74.2427 325.439L51.7781 319.063L64.9285 295.531L82.9849 295.611Z" fill="#A0616A"/>
<path d="M64.0993 317.914L79.4095 313.536C79.4095 313.536 94.1239 337.767 86.1801 340.347C78.2363 342.927 15.3338 358.602 14.1173 350.437C12.9008 342.272 37.8565 328.102 37.8565 328.102L54.2601 312.431L64.0993 317.914H64.0993Z" fill="#2F2E41"/>
<path d="M193.831 183.356L88.337 206.301C80.197 208.072 73.8857 214.522 72.2785 222.713L57.5129 297.968L89.8287 308.481L104.342 241.292L198.001 237.655L193.831 183.356H193.831Z" fill="#2F2E41"/>
<path d="M220.352 56.2122L207.307 81.8239L242.007 87.2349L241.63 52.8007L220.352 56.2122Z" fill="#A0616A"/>
<path d="M227.595 66.72C240.935 66.72 251.75 55.8809 251.75 42.51C251.75 29.1392 240.935 18.3 227.595 18.3C214.254 18.3 203.44 29.1392 203.44 42.51C203.44 55.8809 214.254 66.72 227.595 66.72Z" fill="#A0616A"/>
<path d="M243.252 197.389L247.235 132.714C250.682 117.233 249.534 101.08 243.933 86.2448L242.565 70.8017L210.99 72.8656L197.605 94.5369L184.907 145.791L182.161 180.19L243.252 197.389V197.389Z" fill="#00659D"/>
<path d="M150.853 147.346C153.869 146.921 156.942 147.225 159.817 148.234L181.722 145.727L216.482 138.223C216.482 138.223 206.185 112.08 212.363 105.2C218.541 98.3207 242.565 105.2 242.565 105.2C242.565 105.2 247.37 154.735 235.701 158.175C224.032 161.615 191.084 160.239 191.084 160.239L186.812 160.101L161.521 161.704C158.989 163.401 156.088 164.466 153.06 164.809C145.5 165.771 138.876 162.641 138.266 157.819C137.656 152.996 143.29 148.308 150.853 147.346V147.346Z" fill="#A0616A"/>
<path d="M207.901 118.616L209.274 93.1609L218.06 88.2687C228.837 82.2681 242.293 88.7708 244.319 100.959L246.34 113.112L207.901 118.616V118.616Z" fill="#00659D"/>
<path d="M246.427 57.3898C246.427 57.3898 248.68 46.102 241.923 45.3494C235.165 44.5969 228.408 31.0515 228.408 31.0515C228.408 31.0515 205.091 26.9751 204.341 36.7579C203.59 46.5407 203.877 44.3665 203.877 44.3665C203.877 44.3665 198.334 42.0256 200.586 32.2428C201.23 29.4477 202.793 26.8983 204.697 24.6824C210.818 17.5607 220.221 14.1962 229.537 15.2728C233.483 15.7288 245.23 19.4821 247.499 22.0408C253.505 28.8135 256.188 49.8646 246.427 57.3898V57.3898Z" fill="#3F3D56"/>
<path d="M166.791 344.399C162.554 344.399 158.815 342.177 156.782 338.446C154.736 334.693 154.903 330.314 157.228 326.729L157.573 326.954L157.228 326.729L164.762 315.112C166.875 311.854 170.452 309.909 174.329 309.909H502.003C505.344 309.909 508.505 311.368 510.676 313.913L518.944 323.605C521.864 327.028 522.516 331.699 520.648 335.794C518.779 339.89 514.827 342.449 510.334 342.474L166.859 344.399H166.791Z" fill="#2E2E2E"/>
<path d="M558.832 204.157C564.86 208.108 571.78 208.194 574.288 204.348C576.797 200.503 573.943 194.184 567.913 190.232C565.525 188.62 562.787 187.604 559.928 187.27L534.177 170.851L526.747 183.127L552.922 198.011C554.374 200.503 556.4 202.61 558.832 204.157L558.832 204.157Z" fill="#FFB6B6"/>
<path d="M485.589 163.695L548.765 196.422L554.261 181.273L511.409 147.63L508.556 98.5466C508.208 92.5526 505.209 87.1197 500.328 83.6399C495.448 80.1615 489.343 79.104 483.579 80.7399C473.319 83.6532 467.202 94.4274 469.944 104.756L485.589 163.695Z" fill="#00659D"/>
<path d="M500.849 75.8645L503.803 57.3612L483.865 49.2198L480.911 77.3448L500.849 75.8645Z" fill="#FFB6B6"/>
<path d="M438.063 181.151C438.063 181.151 432.339 217.007 455.234 221.309C478.129 225.612 530.359 228.48 530.359 228.48L597.614 310.231L611.208 295.172L553.255 205.533L506.749 176.131L438.063 181.151Z" fill="#2F2E41"/>
<path d="M443.527 175.347C443.527 175.347 430.178 209.104 451.597 218.282C473.016 227.461 523.381 241.618 523.381 241.618L571.339 336.046L587.869 324.301L550.698 224.196L511.663 185.382L443.527 175.347V175.347Z" fill="#2F2E41"/>
<path d="M504.602 72.8671L478.845 68.5644L461.388 78.3035C451.227 93.1165 450.387 140.099 447.989 157.913L433.77 191.191L478.845 184.737L515.334 181.151L503.171 101.552L504.602 72.8671L504.602 72.8671Z" fill="#00659D"/>
<path d="M495.811 63.3094C507.04 63.3094 516.143 54.1856 516.143 42.9309C516.143 31.6762 507.04 22.5525 495.811 22.5525C484.582 22.5525 475.479 31.6762 475.479 42.9309C475.479 54.1856 484.582 63.3094 495.811 63.3094Z" fill="#FFB6B6"/>
<path d="M494.188 15.5335C494.776 15.8777 495.565 15.3569 495.753 14.7009C495.942 14.0448 495.722 13.3482 495.504 12.7013C495.138 11.6157 494.773 10.5302 494.407 9.44465C493.629 7.13497 492.803 4.74458 491.118 2.98661C488.575 0.333248 484.533 -0.341755 480.895 0.147259C476.222 0.775252 471.612 3.31114 469.439 7.50458C467.267 11.698 468.192 17.5493 472.118 20.1656C466.523 26.5931 464.572 33.7562 464.88 42.2805C465.188 50.8049 474.456 58.65 480.501 64.655C481.85 63.835 483.077 59.9917 482.335 58.5956C481.593 57.1994 482.656 55.5819 481.737 54.2959C480.818 53.0099 480.049 55.0576 480.978 53.7789C481.565 52.972 479.276 51.1157 480.147 50.6327C484.364 48.2969 485.766 43.0295 488.414 38.9959C491.608 34.1307 497.075 30.8359 502.86 30.2893C506.047 29.9881 509.413 30.5335 512.025 32.3879C514.637 34.2422 516.328 37.5559 515.722 40.7062C517.291 39.1097 518.072 36.7701 517.777 34.5489C517.483 32.3277 516.119 30.2737 514.189 29.1433C515.363 25.2531 514.357 20.7782 511.633 17.7678C508.909 14.7574 497.858 15.2701 493.881 16.0624" fill="#2F2E41"/>
<path d="M493.571 30.4073C488.303 30.9773 484.5 35.5506 481.288 39.7741C479.437 42.2085 477.498 44.8968 477.544 47.9572C477.591 51.0513 479.655 53.7052 480.642 56.6375C482.254 61.4305 480.683 67.133 476.844 70.4171C480.637 71.1384 484.737 68.2883 485.392 64.4753C486.154 60.0366 482.797 55.7525 483.194 51.2662C483.544 47.3136 486.652 44.2717 489.294 41.3164C491.936 38.3611 494.417 34.4395 493.202 30.6631" fill="#2F2E41"/>
<path d="M542.672 207.989C548.7 211.941 555.62 212.027 558.129 208.181C560.637 204.336 557.784 198.017 551.753 194.064C549.366 192.453 546.628 191.437 543.769 191.103L518.017 174.684L510.587 186.96L536.763 201.844C538.214 204.336 540.241 206.443 542.672 207.989V207.989Z" fill="#FFB6B6"/>
<path d="M469.43 167.527L532.605 200.255L538.101 185.106L495.25 151.462L492.397 102.379C492.049 96.3855 489.049 90.9526 484.169 87.4728C479.288 83.9943 473.183 82.9369 467.419 84.5728C457.159 87.4861 451.042 98.2603 453.784 108.589L469.43 167.527Z" fill="#00659D"/>
<path d="M573.615 323.378L575.077 324.215C575.077 324.215 585.093 318.478 590.102 324.215C595.11 329.952 598.688 344.294 598.688 344.294C598.688 344.294 619.436 361.505 607.273 361.505C598.117 361.505 576.393 351.346 566.211 346.323C562.96 344.719 561.447 340.91 562.711 337.507C563.765 334.67 565.128 331.694 566.491 330.669C567.922 329.593 568.816 327.263 569.353 325.201C569.839 323.333 571.942 322.42 573.615 323.378Z" fill="#2F2E41"/>
<path d="M601.518 296.127L602.98 296.965C602.98 296.965 612.997 291.228 618.005 296.965C623.014 302.702 626.591 317.044 626.591 317.044C626.591 317.044 647.34 334.255 635.177 334.255C626.021 334.255 604.297 324.096 594.114 319.072C590.864 317.469 589.351 313.659 590.615 310.256C591.669 307.42 593.032 304.443 594.395 303.419C595.826 302.343 596.72 300.012 597.257 297.951C597.743 296.083 599.846 295.169 601.518 296.127Z" fill="#2F2E41"/>
</g>
<defs>
<clipPath id="clip0_21_3135">
<rect width="639" height="419" fill="white"/>
</clipPath>
</defs>
</svg>
