<svg width="96" height="16" viewBox="0 0 96 16" fill="none" xmlns="http://www.w3.org/2000/svg">
<path d="M7.99992 1.33334L10.0599 5.50667L14.6666 6.18L11.3333 9.42667L12.1199 14.0133L7.99992 11.8467L3.87992 14.0133L4.66658 9.42667L1.33325 6.18L5.93992 5.50667L7.99992 1.33334Z" fill="#FFB81C"/>
<path d="M27.9999 1.33334L30.0599 5.50667L34.6666 6.18L31.3333 9.42667L32.1199 14.0133L27.9999 11.8467L23.8799 14.0133L24.6666 9.42667L21.3333 6.18L25.9399 5.50667L27.9999 1.33334Z" fill="#FFB81C"/>
<path d="M47.9999 1.33334L50.0599 5.50667L54.6666 6.18L51.3333 9.42667L52.1199 14.0133L47.9999 11.8467L43.8799 14.0133L44.6666 9.42667L41.3333 6.18L45.9399 5.50667L47.9999 1.33334Z" fill="#FFB81C"/>
<path d="M67.9999 1.33334L70.0599 5.50667L74.6666 6.18L71.3333 9.42667L72.1199 14.0133L67.9999 11.8467L63.8799 14.0133L64.6666 9.42667L61.3333 6.18L65.9399 5.50667L67.9999 1.33334Z" fill="#FFB81C"/>
<path d="M87.9999 1.33334L90.0599 5.50667L94.6666 6.18L91.3333 9.42667L92.1199 14.0133L87.9999 11.8467L83.8799 14.0133L84.6666 9.42667L81.3333 6.18L85.9399 5.50667L87.9999 1.33334Z" fill="#FFB81C"/>
</svg>
