<svg width="568" height="275" viewBox="0 0 568 275" fill="none" xmlns="http://www.w3.org/2000/svg">
<path d="M27.4134 246.883C27.1427 237 144.806 225.777 290.221 221.816C435.636 217.855 553.738 222.656 554.009 232.539C554.28 242.423 436.616 253.646 291.201 257.607C145.786 261.568 27.684 256.767 27.4134 246.883Z" fill="#263238"/>
<path d="M542.095 194.343L486.315 199.334C486.315 199.334 491.775 144.911 501.908 132.481C512.041 120.038 533.865 117.714 543.998 137.926C554.131 158.125 542.095 194.343 542.095 194.343Z" fill="#263238"/>
<path d="M485.557 200.09L542.619 194.975L542.757 194.549C543.253 193.064 554.765 157.836 544.618 137.61C540.165 128.727 532.996 123.31 524.435 122.375C515.832 121.426 506.995 125.139 501.37 132.041C491.223 144.499 485.861 197.037 485.626 199.265L485.557 200.09ZM541.585 193.696L487.101 198.577C487.846 191.702 493.236 144.224 502.459 132.907C507.795 126.362 516.163 122.856 524.297 123.75C532.376 124.63 539.159 129.772 543.391 138.229C552.683 156.777 542.881 189.571 541.585 193.696Z" fill="#263238"/>
<path d="M494.891 145.241H520.134V231.948H494.891C484.799 231.948 476.624 212.533 476.624 188.594C476.624 164.656 484.799 145.241 494.891 145.241Z" fill="#263238"/>
<path d="M494.891 232.622H520.823V144.54H494.891C484.261 144.54 475.934 163.886 475.934 188.581C475.934 213.276 484.261 232.622 494.891 232.622ZM519.444 231.247H494.891C485.199 231.247 477.313 212.107 477.313 188.581C477.313 165.055 485.199 145.915 494.891 145.915H519.444V231.247Z" fill="#263238"/>
<path d="M520.134 231.948C510.045 231.948 501.867 212.538 501.867 188.594C501.867 164.651 510.045 145.241 520.134 145.241C530.222 145.241 538.401 164.651 538.401 188.594C538.401 212.538 530.222 231.948 520.134 231.948Z" fill="#878787"/>
<path d="M520.134 232.622C530.763 232.622 539.09 213.276 539.09 188.581C539.09 163.886 530.763 144.54 520.134 144.54C509.504 144.54 501.177 163.886 501.177 188.581C501.177 213.276 509.504 232.622 520.134 232.622ZM520.134 145.928C529.825 145.928 537.711 165.068 537.711 188.595C537.711 212.121 529.825 231.261 520.134 231.261C510.442 231.261 502.556 212.121 502.556 188.595C502.556 165.068 510.442 145.928 520.134 145.928Z" fill="#263238"/>
<path d="M520.134 225.376C511.636 225.376 504.748 209.702 504.748 190.368C504.748 171.034 511.636 155.361 520.134 155.361C528.631 155.361 535.519 171.034 535.519 190.368C535.519 209.702 528.631 225.376 520.134 225.376Z" fill="white"/>
<path d="M520.134 226.063C529.15 226.063 536.208 210.388 536.208 190.368C536.208 170.348 529.15 154.673 520.134 154.673C511.117 154.673 504.059 170.348 504.059 190.368C504.059 210.388 511.131 226.063 520.134 226.063ZM520.134 156.048C528.24 156.048 534.83 171.448 534.83 190.368C534.83 209.288 528.24 224.688 520.134 224.688C512.027 224.688 505.437 209.288 505.437 190.368C505.437 171.448 512.041 156.048 520.134 156.048Z" fill="#263238"/>
<path d="M300.364 133.856H329.123C340.621 133.856 349.94 154.398 349.94 179.726C349.94 205.067 340.621 225.596 329.123 225.596H300.364C288.867 225.596 279.547 205.053 279.547 179.726C279.533 154.398 288.853 133.856 300.364 133.856Z" fill="#263238"/>
<path d="M300.365 226.297H329.137C340.993 226.297 350.644 205.411 350.644 179.74C350.644 154.068 340.993 133.182 329.137 133.182H300.365C288.508 133.182 278.858 154.068 278.858 179.74C278.844 205.411 288.494 226.297 300.365 226.297ZM329.123 134.543C340.221 134.543 349.251 154.811 349.251 179.726C349.251 204.641 340.221 224.908 329.123 224.908H300.351C289.253 224.908 280.223 204.641 280.223 179.726C280.223 154.811 289.253 134.543 300.351 134.543H329.123Z" fill="#263238"/>
<path d="M271.385 148.115H305.851V250.208H271.385C257.599 250.208 246.432 227.356 246.432 199.169C246.432 170.967 257.599 148.115 271.385 148.115Z" fill="#263238"/>
<path d="M271.385 250.896H306.541V147.427H271.385C257.241 147.427 245.743 170.637 245.743 199.155C245.743 227.686 257.241 250.896 271.385 250.896ZM305.162 249.521H271.385C258.013 249.521 247.121 226.93 247.121 199.169C247.121 171.407 257.999 148.816 271.385 148.816H305.162V249.521Z" fill="#263238"/>
<path d="M305.851 250.208C292.07 250.208 280.898 227.357 280.898 199.168C280.898 170.98 292.07 148.128 305.851 148.128C319.633 148.128 330.805 170.98 330.805 199.168C330.805 227.357 319.633 250.208 305.851 250.208Z" fill="#878787"/>
<path d="M305.851 250.896C319.996 250.896 331.494 227.686 331.494 199.168C331.494 170.637 319.996 147.441 305.851 147.441C291.707 147.441 280.209 170.651 280.209 199.168C280.209 227.686 291.72 250.896 305.851 250.896ZM305.851 148.802C319.224 148.802 330.115 171.393 330.115 199.155C330.115 226.916 319.224 249.507 305.851 249.507C292.479 249.507 281.587 226.916 281.587 199.155C281.587 171.393 292.479 148.802 305.851 148.802Z" fill="#263238"/>
<path d="M305.851 242.481C294.248 242.481 284.841 224.025 284.841 201.259C284.841 178.492 294.248 160.036 305.851 160.036C317.455 160.036 326.862 178.492 326.862 201.259C326.862 224.025 317.455 242.481 305.851 242.481Z" fill="white"/>
<path d="M305.851 243.169C317.818 243.169 327.551 224.372 327.551 201.259C327.551 178.145 317.818 159.349 305.851 159.349C293.885 159.349 284.152 178.145 284.152 201.259C284.152 224.372 293.885 243.169 305.851 243.169ZM305.851 160.724C317.06 160.724 326.173 178.901 326.173 201.259C326.173 223.616 317.06 241.794 305.851 241.794C294.643 241.794 285.53 223.616 285.53 201.259C285.53 178.901 294.643 160.724 305.851 160.724Z" fill="#263238"/>
<path d="M75.9907 137.775H110.457C124.243 137.775 135.41 160.627 135.41 188.815C135.41 217.002 124.243 239.855 110.457 239.855H75.9907C62.2043 239.855 51.0373 217.002 51.0373 188.815C51.0373 160.627 62.2181 137.775 75.9907 137.775Z" fill="#263238"/>
<path d="M75.9906 240.556H110.457C124.601 240.556 136.099 217.346 136.099 188.829C136.099 160.297 124.601 137.101 110.457 137.101H75.9906C61.8458 137.101 50.3479 160.311 50.3479 188.829C50.3479 217.346 61.8596 240.556 75.9906 240.556ZM110.47 138.462C123.843 138.462 134.735 161.054 134.735 188.815C134.735 216.576 123.843 239.167 110.47 239.167H76.0044C62.6178 239.167 51.7403 216.576 51.7403 188.815C51.7403 161.054 62.6316 138.462 76.0044 138.462H110.47Z" fill="#263238"/>
<path d="M414.24 21.0374C420.086 21.6836 425.89 22.7011 431.583 24.1586C440.421 26.4274 454.042 30.4148 467.401 36.3686C489.872 46.3648 517.197 66.7148 525.496 70.5098C533.796 74.3048 546.59 74.9924 547.968 80.5061C549.347 86.0199 550.395 95.6861 550.395 95.6861C550.395 95.6861 555.923 100.512 556.626 113.96C557.315 127.407 558.349 172.246 557.315 178.117C556.282 183.975 556.626 185.364 551.442 188.114C546.259 190.877 543.143 194.329 542.109 194.329C541.075 194.329 547.982 151.566 536.925 141.556C525.855 131.56 509.256 133.966 502.349 156.736C495.428 179.506 497.855 203.981 495.084 205.37C492.313 206.745 488.866 207.089 488.866 207.089L335.671 219.505C335.671 219.505 342.937 186.739 334.637 165.014C326.338 143.289 310.429 132.247 295.567 137.761C280.691 143.275 269.979 168.809 266.863 185.364C263.748 201.919 262.714 210.196 263.403 216.054C264.092 221.911 264.092 224.675 259.598 225.019C255.104 225.362 58.3303 219.161 42.7792 217.429C27.2144 215.71 16.8469 213.634 15.7992 209.495C14.7652 205.356 14.7652 207.776 14.7652 205.356C14.7652 202.936 16.4885 161.892 17.5363 156.035C18.5703 150.177 19.2596 146.039 21.686 142.587C24.1124 139.136 29.9854 132.935 29.9854 132.935C29.9854 132.935 28.9514 125.345 33.4458 120.175C37.9402 115.005 104.68 89.1274 104.68 89.1274C104.68 89.1274 152.05 58.0799 169.697 47.7399C187.33 37.3861 215.344 27.0461 243.358 22.5636C271.372 18.0811 317.018 16.3486 343.295 16.0049C363.41 15.7574 398.827 19.3461 414.24 21.0374Z" fill="#FF725E"/>
<path d="M258.564 225.734C259.102 225.734 259.446 225.733 259.626 225.72C261.404 225.582 262.604 225.087 263.376 224.152C264.727 222.516 264.52 219.862 264.065 215.985C263.403 210.416 264.272 202.716 267.512 185.501C270.365 170.293 280.567 144.059 295.774 138.421C310.18 133.072 325.883 144.113 333.962 165.261C342.096 186.546 335.037 219.037 334.968 219.367L334.762 220.275L488.88 207.79C489.045 207.776 492.506 207.418 495.359 206.002C496.793 205.287 497.041 201.946 497.524 193.792C498.075 184.442 498.916 170.307 502.97 156.942C506.223 146.217 512 139.218 519.224 137.225C524.986 135.63 531.259 137.403 536.429 142.078C544.715 149.572 542.55 176.852 541.613 188.498C541.185 193.93 541.172 194.397 541.544 194.796L541.751 195.016L542.082 195.03C542.771 195.03 543.598 194.383 545.101 193.215C546.7 191.963 548.906 190.245 551.746 188.732C556.668 186.106 556.943 184.442 557.688 179.987C557.77 179.451 557.867 178.873 557.977 178.241C559.053 172.177 557.922 126.115 557.302 113.932C556.668 101.653 552.09 96.401 551.043 95.3697C550.863 93.7885 549.898 85.4285 548.63 80.3547C547.637 76.3947 541.709 74.7722 535.437 73.0672C532.1 72.1597 528.654 71.211 525.772 69.9047C522.739 68.516 517.114 64.886 510.001 60.2797C498.13 52.5935 481.863 42.0747 467.663 35.7635C454.331 29.8372 440.765 25.8222 431.735 23.5122C426.138 22.0822 420.279 21.0235 414.295 20.3635L414.226 21.051L414.295 20.3635C399.709 18.7685 363.561 15.0835 343.226 15.3447C313.558 15.7297 269.552 17.6822 243.192 21.9035C217.039 26.0972 188.722 35.7772 169.297 47.1622C152.133 57.2272 106.279 87.2435 104.322 88.536C100.751 89.9247 37.4026 114.537 32.8806 119.735C28.7172 124.52 29.0756 131.133 29.2272 132.715C28.1243 133.897 23.2715 139.108 21.0795 142.216C18.6255 145.708 17.8948 149.847 16.8884 155.553L16.8195 155.938C15.7717 161.878 14.0484 203.362 14.0484 205.383C14.0484 206.676 14.0484 206.786 14.2828 207.157C14.3793 207.322 14.6136 207.721 15.1099 209.687C16.268 214.307 26.5113 216.342 42.6827 218.143C57.8754 219.807 242.144 225.734 258.564 225.734ZM303.136 135.698C300.516 135.698 297.883 136.166 295.291 137.129C279.547 142.972 269.069 169.743 266.147 185.24C262.879 202.62 262.011 210.416 262.686 216.136C263.086 219.546 263.293 222.062 262.3 223.272C261.79 223.891 260.894 224.235 259.515 224.345C259.515 224.345 259.502 224.345 259.474 224.345C256.317 224.345 60.3707 218.707 42.8206 216.755C30.3439 215.366 17.4537 213.413 16.4335 209.343C15.8958 207.171 15.6063 206.704 15.4546 206.442C15.427 206.346 15.4271 205.961 15.4271 205.37C15.4271 203.348 17.1365 162.057 18.1843 156.172L18.2532 155.787C19.2321 150.246 19.949 146.245 22.2238 143C24.5812 139.631 30.399 133.485 30.4542 133.416L30.6748 133.182L30.6334 132.852C30.6197 132.783 29.696 125.51 33.9284 120.628C37.3888 116.641 81.8637 98.6972 104.887 89.7735L105.011 89.7047C105.48 89.3885 152.574 58.561 170 48.331C189.287 37.0147 217.425 27.4035 243.413 23.2372C269.704 19.0297 313.627 17.0772 343.254 16.6922C363.534 16.4172 399.585 20.1022 414.144 21.6972C420.058 22.3435 425.862 23.3885 431.391 24.8047C440.379 27.101 453.862 31.0885 467.111 36.9735C481.201 43.2435 497.414 53.7347 509.256 61.3935C516.425 66.0272 522.077 69.6847 525.207 71.1147C528.185 72.476 531.687 73.4385 535.078 74.3597C540.951 75.9685 546.507 77.481 547.307 80.6572C548.658 86.061 549.705 95.6447 549.705 95.741L549.733 96.0022L549.94 96.181C549.995 96.2222 555.261 101.035 555.937 113.973C556.654 127.916 557.646 172.273 556.64 177.966C556.53 178.598 556.433 179.19 556.337 179.726C555.606 184.14 555.441 185.185 551.112 187.481C548.161 189.048 545.914 190.809 544.274 192.087C543.722 192.514 543.129 192.981 542.688 193.283C542.716 192.28 542.867 190.465 543.019 188.567C544.039 175.711 546.176 148.967 537.38 141.02C531.852 136.015 525.11 134.145 518.879 135.863C511.186 137.995 505.079 145.323 501.674 156.516C497.565 170.032 496.724 184.263 496.173 193.682C495.87 198.88 495.552 204.242 494.767 204.737C492.161 206.043 488.825 206.387 488.783 206.387L336.512 218.721C337.602 213.262 342.758 184.387 335.258 164.738C328.323 146.616 315.847 135.698 303.136 135.698Z" fill="#263238"/>
<path d="M152.023 132.948L141.986 140.882L229.144 133.98L260.26 108.116L262.686 98.4497L199.738 120.532L152.023 132.948Z" fill="#263238"/>
<path d="M139.794 141.735L229.406 134.64L229.571 134.502L260.866 108.487L263.651 97.3774L199.503 119.872L151.692 132.302L139.794 141.735ZM228.868 133.306L144.192 140.016L152.34 133.581L199.917 121.206L261.707 99.5362L259.653 107.731L228.868 133.306Z" fill="#263238"/>
<path d="M190.17 137.06L182.463 132.935H154.449C154.449 132.935 185.22 130.515 187.302 130.515C189.37 130.515 196.291 133.279 199.062 133.966C201.833 134.654 212.2 134.654 216.695 132.247C221.189 129.827 226.028 119.831 226.028 119.831L184.435 124.506L199.751 120.519L252.029 102.19C256.455 104.142 257.075 109.725 257.144 110.701L256.813 110.976L233.638 118.456L219.507 134.736L190.17 137.06Z" fill="white"/>
<path d="M190.018 137.761L219.838 135.396L234.024 119.047L257.241 111.499L257.847 111.004L257.82 110.646C257.737 109.491 257.061 103.661 252.291 101.557L252.043 101.447L199.503 119.872L184.242 123.846L184.49 125.194L224.815 120.656C223.423 123.296 219.728 129.827 216.35 131.642C212.062 133.939 201.998 133.994 199.214 133.306C198.207 133.059 196.608 132.509 194.912 131.945C191.865 130.914 188.708 129.841 187.288 129.841C185.207 129.841 155.635 132.165 154.38 132.261L154.435 133.636H182.27L190.018 137.761ZM219.163 134.076L190.308 136.359L182.629 132.247H172.33C179.527 131.711 186.365 131.202 187.288 131.202C188.474 131.202 191.796 132.33 194.471 133.237C196.194 133.815 197.821 134.379 198.883 134.64C201.902 135.396 212.38 135.341 217.012 132.852C221.658 130.364 226.442 120.546 226.649 120.134L227.186 119.006L193.92 122.746L199.917 121.179L251.988 102.919C255.462 104.624 256.248 108.859 256.413 110.371L233.238 117.851L219.163 134.076Z" fill="#263238"/>
<path d="M57.2966 132.267L64.4939 132.703L64.4104 134.075L57.2131 133.639L57.2966 132.267Z" fill="#263238"/>
<path d="M131.591 135.712L146.55 134.323L146.425 132.948L131.633 134.323C129.951 134.076 104.156 130.226 91.4453 131.23C81.6294 132 73.7298 132.577 70.3797 132.825L70.4762 134.2C73.84 133.952 81.7259 133.375 91.5556 132.605C104.473 131.601 131.247 135.657 131.509 135.698L131.591 135.712Z" fill="#263238"/>
<path d="M33.4046 120.188C34.6454 118.772 40.5735 115.788 48.5283 112.213L49.6588 112.612C49.6588 112.612 43.4411 117.095 44.8198 121.577C46.1984 126.06 54.4978 131.23 54.4978 131.23L54.1531 138.82C54.1531 138.82 34.0939 137.445 29.9442 132.962C29.9442 132.948 28.9102 125.358 33.4046 120.188Z" fill="white"/>
<path d="M54.8148 139.535L55.2146 130.845L54.8699 130.638C54.7872 130.583 46.7773 125.551 45.4814 121.357C44.2682 117.397 50.0172 113.19 50.0723 113.148L51.1476 112.378L48.5006 111.457L48.2525 111.567C39.1259 115.678 34.0938 118.346 32.8944 119.721C28.2484 125.07 29.2273 132.701 29.2686 133.031L29.2962 133.251L29.4478 133.416C33.7354 138.05 53.2845 139.438 54.1117 139.493L54.8148 139.535ZM53.7946 131.587L53.5051 138.063C49.9896 137.775 34.3971 136.29 30.6197 132.632C30.5094 131.381 30.1233 125.028 33.9422 120.628C34.6453 119.831 37.6232 117.906 47.7424 113.313C45.8812 115.06 43.1102 118.346 44.1717 121.77C45.4539 125.963 52.1678 130.528 53.7946 131.587Z" fill="#263238"/>
<path d="M41.0146 132.948C43.0963 130.886 52.4297 131.917 52.4297 131.917C52.4297 131.917 47.9354 130.886 45.509 130.198C43.0825 129.511 42.7379 128.823 41.7039 123.983C40.6699 119.157 44.475 117.081 44.475 117.081L49.2726 112.461L49.6724 112.598C49.6724 112.598 43.4547 117.081 44.8334 121.563C46.212 126.046 54.5115 131.216 54.5115 131.216L54.1668 138.806C54.1668 138.806 46.0604 138.242 39.0845 136.688C39.2637 135.698 39.76 134.2 41.0146 132.948Z" fill="#263238"/>
<path d="M54.8148 139.535L55.2146 130.845L54.8699 130.639C54.7872 130.584 46.7773 125.551 45.4814 121.357C44.2682 117.397 50.0172 113.19 50.0723 113.149L51.1476 112.379L49.1072 111.664L44.0614 116.531C43.441 116.916 40.0082 119.295 41.0422 124.121C42.0899 129.03 42.5449 130.047 45.3298 130.845C45.509 130.9 45.6882 130.941 45.8812 130.996C43.6616 131.106 41.4971 131.491 40.5321 132.454C39.1672 133.815 38.6158 135.424 38.3952 136.551L38.2711 137.211L38.9191 137.362C45.8674 138.916 54.029 139.494 54.1117 139.494L54.8148 139.535ZM53.7946 131.587L53.5051 138.064C51.4785 137.899 45.4125 137.335 39.9117 136.166C40.1599 135.314 40.6286 134.296 41.5109 133.43C42.8482 132.096 48.8729 132.206 52.3608 132.591L52.5952 131.244C52.5538 131.23 48.087 130.212 45.7158 129.525C43.7305 128.961 43.441 128.7 42.3933 123.832C41.6902 120.532 43.4962 118.676 44.3785 117.989C43.9236 119.171 43.7719 120.464 44.1855 121.77C45.4538 125.964 52.1678 130.529 53.7946 131.587Z" fill="#263238"/>
<path d="M28.9102 148.115C28.9102 148.115 79.0513 155.361 166.195 150.191C166.195 150.191 159.964 158.125 144.413 161.232C128.848 164.34 82.1671 163.652 58.3028 161.232C34.4385 158.812 33.7492 157.093 30.9781 154.33C28.2208 151.566 28.9102 148.115 28.9102 148.115Z" fill="#263238"/>
<path d="M107.851 163.982C123.099 163.982 137.161 163.377 144.55 161.906C160.184 158.785 166.485 150.947 166.747 150.617L167.684 149.421L166.154 149.517C80.0852 154.618 29.5029 147.523 29.0066 147.455L28.3586 147.358L28.2346 147.991C28.207 148.142 27.5039 151.841 30.4955 154.825L30.854 155.182C33.4734 157.836 35.1967 159.582 58.2338 161.92C70.4347 163.143 89.9563 163.982 107.851 163.982ZM164.499 150.975C162.073 153.285 155.731 158.262 144.275 160.545C129.399 163.515 83.2699 163.047 58.3716 160.531C35.8309 158.248 34.2454 156.64 31.8328 154.206L31.4606 153.835C29.6684 152.047 29.4753 149.93 29.5167 148.885C35.9274 149.723 84.8553 155.581 164.499 150.975Z" fill="#263238"/>
<path d="M17.8394 205.37C17.8394 205.37 53.8081 210.884 92.1895 211.571C130.571 212.259 175.528 208.12 182.794 210.884C190.059 213.647 197.669 218.817 200.771 219.849C203.887 220.88 218.404 221.567 218.404 221.567C218.404 221.567 188.322 196.391 176.218 192.596C164.113 188.801 148.204 188.457 143.709 188.457C139.215 188.457 39.9666 185.35 34.4382 185.006C28.9099 184.662 23.3677 187.77 21.6444 191.221C19.9211 194.672 17.8394 205.37 17.8394 205.37Z" fill="#263238"/>
<path d="M220.431 222.365L218.859 221.059C217.632 220.027 188.529 195.745 176.438 191.964C163.782 187.99 146.963 187.797 143.723 187.797C138.677 187.797 39.6495 184.676 34.4933 184.346C28.4135 183.975 22.7749 187.467 21.0378 190.932C19.287 194.425 17.2603 204.806 17.1776 205.246L17.0397 205.947L17.7429 206.057C18.1013 206.112 54.1941 211.585 92.1895 212.272C109.602 212.589 128.089 211.915 144.385 211.324C163.576 210.622 178.727 210.086 182.559 211.53C186.695 213.097 190.983 215.49 194.429 217.401C197.09 218.872 199.186 220.041 200.564 220.509C203.735 221.554 217.784 222.241 218.39 222.269L220.431 222.365ZM33.5972 185.68C33.8592 185.68 34.1349 185.694 34.3969 185.707C39.5668 186.024 138.677 189.159 143.723 189.159C146.935 189.159 163.562 189.351 176.025 193.27C186.268 196.487 209.994 215.559 216.377 220.784C212.269 220.55 203.294 219.972 201.006 219.202C199.751 218.79 197.6 217.594 195.105 216.205C191.617 214.266 187.274 211.86 183.056 210.251C178.961 208.697 163.686 209.247 144.343 209.949C128.062 210.54 109.615 211.214 92.2308 210.897C57.2823 210.265 23.933 205.576 18.6803 204.806C19.1767 202.386 20.8724 194.37 22.2786 191.551C23.74 188.609 28.5376 185.68 33.5972 185.68Z" fill="#263238"/>
<path d="M210.119 151.91C210.119 151.91 229.144 210.196 231.556 209.509C233.983 208.821 236.396 206.057 236.396 204.682C236.396 203.307 231.901 164.67 228.096 157.437C224.291 150.191 210.119 151.91 210.119 151.91Z" fill="#263238"/>
<path d="M231.432 210.224C231.543 210.224 231.639 210.196 231.75 210.169C234.452 209.399 237.085 206.374 237.085 204.682C237.085 203.101 232.59 164.491 228.703 157.107C224.718 149.531 210.629 151.154 210.022 151.222L209.195 151.319L209.457 152.116C209.498 152.267 214.268 166.856 219.273 181.184C228.592 207.859 230.426 210.224 231.432 210.224ZM213.689 152.432C218.004 152.432 225.077 153.175 227.49 157.754C231.115 164.67 235.706 203.087 235.706 204.682C235.706 205.59 233.79 208.01 231.612 208.78C229.158 206.14 217.894 173.47 211.042 152.529C211.663 152.474 212.586 152.432 213.689 152.432Z" fill="#263238"/>
<path d="M272.681 144.169L273.15 142.876C272.323 142.574 271.427 142.257 270.503 141.955C264.313 139.892 234.355 133.251 233.087 132.962L232.784 134.31C233.101 134.379 263.941 141.226 270.062 143.261C270.986 143.564 271.868 143.866 272.681 144.169Z" fill="#263238"/>
<path d="M280.36 147.359L280.981 146.135C280.939 146.107 279.823 145.557 277.879 144.732L277.341 145.997C279.23 146.795 280.347 147.345 280.36 147.359Z" fill="#263238"/>
<path d="M282.745 88.1095C282.745 88.1095 295.195 87.0782 300.723 82.9395C306.251 78.8008 352.601 28.1045 352.601 28.1045C352.601 28.1045 232.26 30.5245 218.073 31.212C203.887 31.8995 203.901 34.6632 187.647 40.5207C171.393 46.3782 119.873 82.252 119.873 82.252L109.85 89.1545C109.85 89.1545 134.059 89.842 192.844 88.467C251.616 87.0645 282.745 88.1095 282.745 88.1095Z" fill="#878787"/>
<path d="M129.289 89.9935C142.745 89.9935 163.534 89.8285 192.844 89.141C250.94 87.7797 282.401 88.7835 282.718 88.7972H282.759H282.801C283.311 88.756 295.512 87.6972 301.137 83.4897C306.651 79.3647 351.209 30.6347 353.098 28.5585L354.173 27.376L352.574 27.4035C351.374 27.431 232.053 29.8235 218.032 30.511C208.395 30.9785 205.142 32.4222 199.227 35.0622C196.332 36.341 192.748 37.9497 187.412 39.8747C171.255 45.7047 121.582 80.231 119.473 81.6885L107.713 89.7735L109.823 89.8285C109.933 89.8285 116.054 89.9935 129.289 89.9935ZM249.755 87.051C235.279 87.051 216.199 87.216 192.803 87.766C144.247 88.9072 119.073 88.6322 111.973 88.4947L120.245 82.8022C120.769 82.4447 171.889 46.9147 187.867 41.1535C193.244 39.2147 196.87 37.606 199.779 36.3135C205.735 33.6735 208.726 32.3397 218.101 31.886C231.212 31.2535 336.65 29.1085 351.002 28.8197C343.985 36.4785 305.259 78.691 300.309 82.3897C295.153 86.2535 283.476 87.3535 282.718 87.4222C281.932 87.3947 270.641 87.051 249.755 87.051Z" fill="#263238"/>
<path d="M329.081 103.977C329.081 103.977 321.816 95.3559 322.161 89.4846C322.505 83.6272 347.404 48.4409 360.197 38.1009C372.991 27.7472 389.59 23.6084 398.923 23.6084C408.257 23.6084 435.926 28.7784 453.214 35.3371C470.502 41.8959 492.988 52.2359 492.988 52.2359L520.313 70.1659C520.313 70.1659 486.77 80.1622 424.869 89.4846C362.968 98.7934 329.081 103.977 329.081 103.977Z" fill="#878787"/>
<path d="M328.806 104.706L329.192 104.651C329.536 104.596 363.796 99.3708 424.98 90.1721C486.219 80.9596 520.189 70.9358 520.52 70.8396L521.94 70.4133L493.388 51.6721C493.071 51.5208 470.599 41.1946 453.49 34.7046C435.775 27.9808 408.188 22.9346 398.951 22.9346C388.804 22.9346 372.219 27.5133 359.784 37.5783C347.059 47.8633 321.871 83.0771 321.485 89.4571C321.127 95.5208 328.254 104.06 328.558 104.431L328.806 104.706ZM518.686 69.9183C511.641 71.8983 478.885 80.6571 424.773 88.7971C367.077 97.4733 333.328 102.616 329.371 103.221C328.13 101.681 322.561 94.4483 322.85 89.5121C323.167 84.0533 347.583 49.1696 360.639 38.6096C372.812 28.7646 389.025 24.2821 398.937 24.2821C408.078 24.2821 435.402 29.3008 452.98 35.9696C470.048 42.4458 492.478 52.7446 492.699 52.8546L518.686 69.9183Z" fill="#263238"/>
<path d="M360.197 38.1009C372.991 27.7472 389.59 23.6084 398.923 23.6084C408.257 23.6084 435.926 28.7784 453.214 35.3371C470.502 41.8959 492.988 52.2359 492.988 52.2359L520.313 70.1659C520.313 70.1659 511.269 72.8609 493.953 76.7522L478.816 49.8159L466.022 43.2572L479.643 79.8184C478.705 80.0109 477.754 80.2034 476.775 80.3959L463.595 43.2572C451.836 37.0559 417.949 28.7646 417.949 28.7646C427.985 42.3084 435.747 77.4397 437.815 87.4497C433.638 88.1234 429.336 88.7972 424.869 89.4709C424.635 89.5122 424.401 89.5396 424.166 89.5809C423.656 59.0146 408.96 27.7334 408.96 27.7334C408.96 27.7334 395.132 26.3584 377.486 32.5596C359.853 38.7746 350.161 50.8334 350.161 50.8334L359.191 99.3709C357.936 99.5634 356.709 99.7422 355.524 99.9209L347.734 54.9584L337.009 68.4059L342.372 101.901C333.603 103.235 329.054 103.922 329.054 103.922C329.054 103.922 321.788 95.3009 322.133 89.4296C322.505 83.6271 347.404 48.4409 360.197 38.1009Z" fill="#263238"/>
<path d="M328.806 104.706L343.185 102.52L337.753 68.6396L347.335 56.6221L354.972 100.732L360.004 99.9758L350.905 51.0533C352.367 49.3483 361.838 38.8158 377.72 33.2333C393.368 27.7196 406.148 28.2558 408.505 28.4071C410.132 31.9821 423.008 61.2971 423.477 89.6083L423.491 90.3921L424.98 90.1721C429.447 89.4983 433.762 88.8246 437.925 88.1508L438.628 88.0408L438.49 87.3396C436.422 77.3158 429.129 44.4258 419.575 29.9058C426.648 31.6933 452.87 38.4996 463.044 43.7658L476.334 81.2071L480.567 80.3408L467.276 44.7008L478.306 50.3521L493.595 77.5496L494.091 77.4396C511.241 73.5896 520.409 70.8671 520.506 70.8396L521.926 70.4133L493.374 51.6721C493.057 51.5208 470.585 41.1946 453.476 34.7046C435.761 27.9808 408.174 22.9346 398.937 22.9346C388.79 22.9346 372.205 27.5133 359.77 37.5783C347.045 47.8633 321.857 83.0771 321.471 89.4571C321.113 95.5208 328.241 104.06 328.544 104.431L328.806 104.706ZM341.6 101.365L329.357 103.221C328.116 101.681 322.547 94.4483 322.836 89.5121C323.153 84.0533 347.569 49.1696 360.625 38.6096C372.798 28.7646 389.011 24.2821 398.923 24.2821C408.064 24.2821 435.388 29.3008 452.966 35.9696C470.034 42.4458 492.464 52.7446 492.685 52.8546L518.658 69.9183C515.501 70.7983 507.216 73.0533 494.27 75.9683L479.284 49.3071L464.726 41.8546L478.692 79.3233L477.203 79.6258L464.133 42.8033L463.899 42.6796C452.194 36.5058 419.479 28.4758 418.087 28.1321L416.239 27.6783L417.37 29.2046C427.062 42.2946 434.644 75.8033 436.96 86.9133C433.031 87.5458 428.992 88.1783 424.801 88.8108C424.056 58.6846 409.691 27.7883 409.553 27.4721L409.387 27.1146L409.001 27.0733C408.863 27.0596 394.815 25.7533 377.237 31.9408C359.618 38.1421 349.706 50.3108 349.609 50.4346L349.416 50.6821L358.364 98.8346L356.075 99.1783L348.148 53.3771L336.278 68.2683L341.6 101.365Z" fill="#263238"/>
<path d="M333.231 79.8326C333.231 79.8326 339.449 74.3188 342.565 76.7251C345.68 79.1451 347.059 83.6276 347.059 83.6276L353.291 82.9401C353.291 82.9401 358.819 68.4476 362.969 68.1038C367.118 67.7601 386.833 66.7288 391.327 68.4476C395.822 70.1663 396.511 73.9613 396.856 76.3813C397.2 78.8013 397.89 86.3776 394.429 88.1101C390.969 89.8288 358.46 93.6238 358.46 93.6238L347.39 97.7626L349.113 101.558L329.054 103.978C329.054 103.978 322.823 92.9363 322.133 89.4851C321.472 86.0338 333.231 79.8326 333.231 79.8326Z" fill="#263238"/>
<path d="M328.709 104.706L350.161 102.121L348.341 98.1474L358.64 94.2974C360.859 94.0362 391.272 90.4474 394.746 88.7149C398.703 86.7349 397.89 78.6912 397.545 76.2712C397.242 74.1399 396.607 69.7262 391.575 67.7874C386.75 65.9312 365.891 67.1549 362.913 67.4024C358.722 67.7462 353.842 79.5987 352.794 82.2799L347.528 82.8574C347.045 81.5512 345.612 78.1962 342.978 76.1612C339.601 73.5349 333.548 78.6087 332.818 79.2412C330.626 80.4099 320.727 85.8824 321.472 89.6087C322.175 93.1287 328.213 103.84 328.461 104.294L328.709 104.706ZM348.121 100.994L329.454 103.235C328.337 101.227 323.429 92.2899 322.836 89.3474C322.423 87.3124 328.861 82.9124 333.548 80.4374L333.686 80.3412C335.299 78.9112 339.959 75.5837 342.137 77.2612C345.032 79.5162 346.384 83.7787 346.397 83.8199L346.563 84.3562L353.773 83.5587L353.925 83.1599C356.006 77.7149 360.308 68.9974 363.024 68.7637C367.766 68.3649 386.847 67.4437 391.079 69.0662C395.353 70.7024 395.891 74.4424 396.18 76.4499C396.8 80.7537 396.635 86.2124 394.14 87.4637C391.396 88.8387 367.408 91.8637 358.405 92.9087L358.24 92.9499L346.48 97.3499L348.121 100.994Z" fill="#263238"/>
<path d="M355.358 84.6583C353.29 82.9396 353.29 82.9396 353.29 82.9396C353.29 82.9396 358.819 68.4471 362.968 68.1033C367.118 67.7596 386.833 66.7283 391.327 68.4471C395.822 70.1658 396.511 73.9608 396.855 76.3808C397.035 77.6458 397.31 80.3271 397.035 82.8433C387.384 83.6546 357.109 86.1021 355.358 84.6583Z" fill="white"/>
<path d="M360.694 85.7723C367.311 85.7723 379.485 85.0298 397.09 83.531L397.655 83.4898L397.71 82.926C398.014 80.0935 397.655 77.1373 397.531 76.2985C397.228 74.1673 396.594 69.7535 391.562 67.8148C386.736 65.9585 365.877 67.1823 362.9 67.4298C358.447 67.801 353.208 81.1798 352.629 82.706L352.45 83.1598L354.903 85.1948C355.386 85.5798 357.316 85.7723 360.694 85.7723ZM396.401 82.211C373.212 84.1635 357.302 84.9197 355.786 84.1222L354.104 82.7335C356.241 77.2748 360.39 69.0248 363.024 68.8048C367.766 68.406 386.847 67.4848 391.079 69.1073C395.353 70.7435 395.89 74.4835 396.18 76.491C396.276 77.2198 396.594 79.7085 396.401 82.211Z" fill="#263238"/>
<path d="M343.599 111.554L344.922 111.182C343.778 107.181 342.882 104.472 342.868 104.445L341.558 104.885C341.572 104.912 342.468 107.594 343.599 111.554Z" fill="#263238"/>
<path d="M354.669 209.508C357.247 209.508 475.369 195.841 476.486 195.703C478.94 195.401 480.125 194.59 482.276 193.119C482.703 192.83 483.172 192.5 483.71 192.156C487.198 189.832 507.85 133.278 509.932 125.895C510.276 124.643 510.58 122.897 510.8 120.711L509.422 120.573C509.201 122.691 508.925 124.355 508.594 125.537C505.934 135.011 485.792 188.993 482.938 191.028C482.4 191.386 481.931 191.716 481.49 192.005C479.464 193.394 478.443 194.095 476.32 194.37C475.217 194.507 357.109 208.161 354.683 208.161C352.725 208.161 352.201 207.831 351.553 204.572C351.195 202.785 350.919 186.422 350.643 170.596C350.409 156.516 350.161 141.968 349.83 136.028C349.568 131.175 348.493 124.946 346.632 117.521L345.294 117.851C347.128 125.194 348.189 131.326 348.451 136.111C348.769 142.023 349.017 156.557 349.265 170.623C349.554 187.233 349.816 202.936 350.202 204.847C350.878 208.285 351.664 209.508 354.669 209.508Z" fill="#263238"/>
<path d="M511.2 114.028C511.641 102.19 510.869 86.9134 510.607 85.8684C510.263 84.4796 503.631 80.9184 498.144 78.1821L497.524 79.4059C502.928 82.1009 508.801 85.4009 509.284 86.2534C509.463 87.0784 510.263 101.983 509.821 113.973L511.2 114.028Z" fill="#263238"/>
<path d="M436.974 196.061H438.353V194.342C438.353 193.985 438.573 190.575 438.89 185.859C439.249 180.427 439.745 172.906 440.255 164.849L438.876 164.766C438.38 172.824 437.87 180.331 437.512 185.762C437.139 191.29 436.974 193.957 436.974 194.342V196.061Z" fill="#263238"/>
<path d="M440.944 153.436C442.006 135.162 442.406 123.736 442.158 119.46C441.468 107.786 436.643 92.2075 436.588 92.0425L435.264 92.455C435.32 92.6062 440.09 108.034 440.765 119.542C441.013 123.764 440.614 135.149 439.552 153.367L440.944 153.436Z" fill="#263238"/>
<path d="M493.057 100.141C493.788 103.881 495.897 106.617 497.772 106.26C499.647 105.902 500.571 102.575 499.854 98.8347C499.137 95.0947 497.014 92.3585 495.139 92.716C493.264 93.0735 492.326 96.401 493.057 100.141Z" fill="#263238"/>
<path d="M497.427 106.975C497.593 106.975 497.744 106.961 497.896 106.934C499.068 106.7 499.978 105.669 500.447 103.991C500.874 102.492 500.888 100.609 500.516 98.6974C499.702 94.5174 497.276 91.5887 495.001 92.0424C492.712 92.4824 491.568 96.0986 492.382 100.279C492.754 102.19 493.484 103.922 494.436 105.16C495.346 106.342 496.393 106.975 497.427 106.975ZM495.47 93.3762C496.752 93.3762 498.517 95.5624 499.178 98.9724C499.509 100.677 499.495 102.341 499.123 103.634C498.806 104.761 498.268 105.476 497.634 105.586C497 105.71 496.242 105.242 495.525 104.321C494.698 103.249 494.064 101.722 493.733 100.017C493.03 96.4287 493.981 93.6374 495.263 93.3899C495.332 93.3762 495.401 93.3762 495.47 93.3762Z" fill="#263238"/>
<path d="M493.36 97.5148L501.701 96.6623C503.176 96.5111 504.486 97.6111 504.582 99.0961C504.679 100.485 503.673 101.695 502.294 101.874L493.981 102.905C492.354 103.111 490.92 101.846 490.92 100.21C490.92 98.8211 491.968 97.6523 493.36 97.5148Z" fill="#FF725E"/>
<path d="M493.636 103.606C493.774 103.606 493.912 103.592 494.064 103.579L502.377 102.547C504.114 102.327 505.396 100.787 505.272 99.0412C505.217 98.1337 504.789 97.3224 504.1 96.7312C503.411 96.1537 502.528 95.8787 501.618 95.9749L493.278 96.8274C491.527 97.0062 490.217 98.4637 490.217 100.21C490.217 101.186 490.631 102.107 491.375 102.754C492.009 103.304 492.809 103.606 493.636 103.606ZM501.977 97.3362C502.432 97.3362 502.873 97.5012 503.218 97.7899C503.617 98.1337 503.866 98.6149 503.907 99.1374C503.976 100.155 503.231 101.049 502.211 101.186L493.898 102.217C493.319 102.286 492.74 102.107 492.299 101.722C491.858 101.337 491.61 100.787 491.61 100.21C491.61 99.1649 492.395 98.2987 493.429 98.2024L501.77 97.3499C501.839 97.3362 501.908 97.3362 501.977 97.3362Z" fill="#263238"/>
<path d="M421.064 109.285C421.905 113.808 424.373 117.122 426.551 116.682C428.73 116.242 429.819 112.213 428.964 107.69C428.123 103.166 425.669 99.8521 423.477 100.292C421.299 100.732 420.223 104.761 421.064 109.285Z" fill="#263238"/>
<path d="M426.152 117.411C426.331 117.411 426.51 117.397 426.675 117.356C429.267 116.834 430.563 112.53 429.626 107.566C428.992 104.211 427.503 101.392 425.71 100.196C424.925 99.6735 424.097 99.4673 423.325 99.6323C420.734 100.155 419.438 104.459 420.375 109.422C421.009 112.777 422.498 115.596 424.29 116.792C424.911 117.191 425.545 117.411 426.152 117.411ZM423.877 100.939C424.221 100.939 424.58 101.062 424.966 101.324C426.427 102.314 427.737 104.857 428.288 107.814C429.116 112.255 427.971 115.692 426.414 115.995C426 116.077 425.545 115.954 425.076 115.637C423.615 114.647 422.305 112.104 421.754 109.147C420.927 104.706 422.071 101.269 423.629 100.966C423.698 100.952 423.78 100.939 423.877 100.939Z" fill="#263238"/>
<path d="M421.423 106.095L431.128 105.063C432.852 104.885 434.368 106.218 434.492 108.006C434.603 109.683 433.431 111.155 431.818 111.361L422.14 112.612C420.251 112.86 418.583 111.333 418.583 109.353C418.583 107.676 419.796 106.273 421.423 106.095Z" fill="#FF725E"/>
<path d="M421.74 113.327C421.905 113.327 422.057 113.313 422.222 113.3L431.901 112.048C433.858 111.801 435.306 110 435.168 107.965C435.099 106.906 434.603 105.902 433.803 105.228C433.031 104.568 432.052 104.28 431.046 104.376L421.34 105.407C419.369 105.613 417.88 107.318 417.88 109.353C417.88 110.522 418.376 111.622 419.231 112.378C419.948 112.997 420.83 113.327 421.74 113.327ZM431.432 105.737C431.969 105.737 432.48 105.93 432.907 106.287C433.431 106.727 433.748 107.36 433.789 108.061C433.872 109.367 432.962 110.522 431.721 110.687L422.043 111.938C421.354 112.021 420.678 111.815 420.155 111.361C419.589 110.866 419.272 110.137 419.272 109.367C419.272 108.033 420.223 106.92 421.492 106.782L431.197 105.751C431.266 105.737 431.349 105.737 431.432 105.737Z" fill="#263238"/>
<path d="M533.451 82.2383C533.244 79.9283 538.042 77.357 541.833 75.707C545.032 76.8758 547.431 78.3058 547.982 80.5195C549.361 86.0333 550.409 95.6995 550.409 95.6995C550.409 95.6995 533.796 86.0333 533.451 82.2383Z" fill="#263238"/>
<path d="M551.222 96.9785L551.07 95.631C551.029 95.2323 550.009 85.8685 548.63 80.3685C547.927 77.5635 544.742 76.0648 542.054 75.0748L541.792 74.9785L541.544 75.0885C535.436 77.756 532.555 80.121 532.748 82.321C533.107 86.2673 547.21 94.6548 550.036 96.3048L551.222 96.9785ZM541.861 76.4498C545.17 77.701 546.907 79.0485 547.32 80.6848C548.368 84.8648 549.223 91.5473 549.568 94.3935C543.267 90.626 534.361 84.5348 534.154 82.1835C534.016 80.781 536.884 78.6498 541.861 76.4498Z" fill="#263238"/>
<path d="M209.236 32.2021L273.219 87.9034C261.721 87.7246 239.925 87.5596 208.505 88.1234L178.051 45.0584C181.856 42.9959 185.165 41.4009 187.647 40.5072C199.586 36.2034 202.756 33.5634 209.236 32.2021Z" fill="white"/>
<path d="M208.147 88.8249H208.505C239.028 88.2749 260.535 88.3986 273.205 88.6049L275.094 88.6324L209.429 31.4736L209.098 31.5424C205.459 32.3124 202.839 33.4674 199.227 35.0761C196.332 36.3549 192.748 37.9499 187.412 39.8749C185.055 40.7274 181.787 42.2674 177.72 44.4674L177.031 44.8386L208.147 88.8249ZM249.837 87.0511C238.711 87.0511 225.049 87.1474 208.85 87.4361L179.058 45.2924C182.739 43.3261 185.703 41.9374 187.881 41.1536C193.258 39.2149 196.883 37.6061 199.792 36.3136C203.211 34.8011 205.721 33.6874 209.043 32.9449L271.344 87.1886C265.719 87.1061 258.55 87.0511 249.837 87.0511Z" fill="#263238"/>
<path d="M149.045 89.2102L144.867 65.3952C149.596 62.3015 154.614 59.0702 159.55 55.9902C164.003 66.509 168.911 78.1415 173.447 88.8665C164.237 89.0315 156.131 89.1415 149.045 89.2102Z" fill="white"/>
<path d="M148.479 89.8976H149.058C156.655 89.8288 164.858 89.7051 173.447 89.5538L174.467 89.5401L174.067 88.6051C169.545 77.8801 164.623 66.2613 160.17 55.7288L159.853 54.9863L159.164 55.4126C154.614 58.2588 149.679 61.4213 144.481 64.8313L144.109 65.0788L148.479 89.8976ZM172.413 88.1926C164.417 88.3301 156.765 88.4401 149.638 88.5226L145.639 65.7251C150.437 62.5901 155 59.6613 159.233 56.9938C163.465 67.0176 168.097 77.9901 172.413 88.1926Z" fill="#263238"/>
</svg>
