<svg width="395" height="395" viewBox="0 0 395 395" fill="none" xmlns="http://www.w3.org/2000/svg">
<path opacity="0.7" d="M53.6648 132.001C53.6648 132.001 31.6396 188.873 62.5918 246.156C93.5361 303.447 157.297 333.688 208.323 359.561C259.349 385.433 312.335 372.833 337.512 330.457C362.689 288.081 328.15 257.832 328.111 197.405C328.071 136.978 337.156 120.981 304.442 69.9309C271.729 18.8811 191.425 7.5762 130.721 45.4409C70.0178 83.3056 53.6648 132.001 53.6648 132.001Z" fill="white"/>
<path d="M180.318 40.543C278.309 31.8135 278.467 87.0977 322.62 138.606C366.773 190.114 376.222 213.458 359.576 272.835C342.931 332.203 286.849 378.75 217.463 352.38C148.078 326.01 108.333 351.337 64.5667 327.913C20.8007 304.498 4.55041 259.255 36.5849 205.93C68.6194 152.605 59.4949 51.3028 180.318 40.543Z" fill="#FF725E"/>
<path opacity="0.7" d="M180.318 40.543C278.309 31.8135 278.467 87.0977 322.62 138.606C366.773 190.114 376.222 213.458 359.576 272.835C342.931 332.203 286.849 378.75 217.463 352.38C148.078 326.01 108.333 351.337 64.5667 327.913C20.8007 304.498 4.55041 259.255 36.5849 205.93C68.6194 152.605 59.4949 51.3028 180.318 40.543Z" fill="white"/>
<path d="M207.62 68.1533L191.504 71.5503C189.331 72.0085 187.198 70.6181 186.74 68.4456L183.343 52.3296C182.885 50.1571 184.275 48.0241 186.448 47.5659L202.564 44.1689C204.736 43.7107 206.869 45.1011 207.328 47.2736L210.725 63.3896C211.183 65.5621 209.792 67.6951 207.62 68.1533Z" stroke="#263238" stroke-miterlimit="10" stroke-linecap="round" stroke-linejoin="round"/>
<path d="M196.007 52.9695L198.061 62.7497" stroke="#263238" stroke-miterlimit="10" stroke-linecap="round" stroke-linejoin="round"/>
<path d="M201.924 56.8247L192.144 58.8866" stroke="#263238" stroke-miterlimit="10" stroke-linecap="round" stroke-linejoin="round"/>
<path d="M370.099 240.484L353.983 243.881C351.811 244.339 349.678 242.949 349.219 240.776L345.822 224.66C345.364 222.488 346.755 220.355 348.927 219.896L365.043 216.499C367.216 216.041 369.349 217.432 369.807 219.604L373.204 235.72C373.662 237.893 372.272 240.026 370.099 240.484Z" stroke="#263238" stroke-miterlimit="10" stroke-linecap="round" stroke-linejoin="round"/>
<path d="M362.247 225.995L356.788 234.369" stroke="#263238" stroke-miterlimit="10" stroke-linecap="round" stroke-linejoin="round"/>
<path d="M363.7 232.916L355.326 227.449" stroke="#263238" stroke-miterlimit="10" stroke-linecap="round" stroke-linejoin="round"/>
<path d="M146.521 345.025L130.073 344.077C127.854 343.95 126.163 342.046 126.289 339.826L127.237 323.379C127.364 321.159 129.268 319.468 131.488 319.595L147.935 320.543C150.155 320.669 151.846 322.573 151.719 324.793L150.771 341.241C150.645 343.453 148.741 345.151 146.521 345.025Z" stroke="#263238" stroke-miterlimit="10" stroke-linecap="round" stroke-linejoin="round"/>
<path d="M144.001 332.598L134.016 332.021" stroke="#263238" stroke-miterlimit="10" stroke-linecap="round" stroke-linejoin="round"/>
<path d="M41.4354 230.048L25.8013 224.866C23.692 224.17 22.5465 221.895 23.2496 219.786L28.432 204.152C29.1272 202.043 31.4024 200.897 33.5117 201.6L49.1458 206.783C51.2551 207.478 52.4006 209.753 51.6975 211.862L46.5151 227.496C45.8199 229.606 43.5447 230.751 41.4354 230.048Z" stroke="#263238" stroke-miterlimit="10" stroke-linecap="round" stroke-linejoin="round"/>
<path d="M43.7264 212.684L31.2207 218.964" stroke="#263238" stroke-miterlimit="10" stroke-linecap="round" stroke-linejoin="round"/>
<path d="M36.5531 210.101C36.9876 210.962 36.64 212.012 35.7789 212.447C34.9178 212.881 33.8671 212.534 33.4326 211.673C32.9981 210.812 33.3457 209.761 34.2068 209.326C35.0679 208.892 36.1186 209.24 36.5531 210.101Z" stroke="#263238" stroke-miterlimit="10" stroke-linecap="round" stroke-linejoin="round"/>
<path d="M41.5143 219.983C41.9488 220.845 41.6012 221.895 40.7401 222.33C39.879 222.764 38.8283 222.417 38.3938 221.556C37.9593 220.694 38.3069 219.644 39.168 219.209C40.0291 218.775 41.0798 219.122 41.5143 219.983Z" stroke="#263238" stroke-miterlimit="10" stroke-linecap="round" stroke-linejoin="round"/>
<path d="M203.583 316.624C199.017 323.236 189.948 324.888 183.336 320.321C180.784 318.552 178.975 316.119 177.964 313.417C176.376 309.111 176.834 304.126 179.638 300.066C181.598 297.238 184.378 295.318 187.436 294.409C191.528 293.177 196.11 293.762 199.894 296.376C206.506 300.943 208.157 310.012 203.583 316.624Z" fill="#FF725E"/>
<path opacity="0.3" d="M201.687 315.313C197.84 320.874 190.216 322.265 184.647 318.417C179.077 314.57 177.695 306.947 181.542 301.377C185.389 295.816 193.013 294.425 198.582 298.272C204.144 302.12 205.534 309.743 201.687 315.313Z" fill="black" fill-opacity="0.7"/>
<path d="M201.687 315.313C197.84 320.874 190.216 322.265 184.647 318.417C179.077 314.57 177.695 306.947 181.542 301.377C185.389 295.816 193.013 294.425 198.582 298.272C204.144 302.12 205.534 309.743 201.687 315.313Z" stroke="#263238" stroke-miterlimit="10" stroke-linecap="round" stroke-linejoin="round"/>
<path d="M194.751 302.23L195.336 301.377L196.805 302.396L196.22 303.249C197.319 304.395 197.287 305.825 196.22 307.373L195.968 307.737L194.269 306.56L194.593 306.086C195.162 305.272 195.043 304.735 194.475 304.34C193.906 303.945 193.361 304.032 192.8 304.845C192.239 305.659 192.168 306.457 192.713 308.258C193.369 310.454 193.258 311.702 192.349 313.006C191.275 314.554 189.916 315.092 188.463 314.468L187.886 315.305L186.417 314.286L186.993 313.448C185.879 312.295 185.919 310.849 186.993 309.293L187.538 308.511L189.237 309.688L188.613 310.589C188.044 311.402 188.202 311.947 188.779 312.342C189.347 312.737 189.916 312.69 190.477 311.876C191.038 311.063 191.125 310.249 190.564 308.463C189.893 306.283 190.019 305.019 190.927 303.716C191.986 302.183 193.305 301.638 194.751 302.23Z" fill="#FF725E" stroke="#263238" stroke-miterlimit="10" stroke-linecap="round" stroke-linejoin="round"/>
<path opacity="0.2" d="M187.554 296.55C187.554 303.724 183.707 309.996 177.964 313.417C176.376 309.111 176.834 304.126 179.638 300.066C181.598 297.238 184.378 295.318 187.436 294.409C187.515 295.113 187.554 295.824 187.554 296.55Z" fill="black" fill-opacity="0.7"/>
<path d="M203.583 316.624C199.017 323.236 189.948 324.888 183.336 320.321C180.784 318.552 178.975 316.119 177.964 313.417C176.376 309.111 176.834 304.126 179.638 300.066C181.598 297.238 184.378 295.318 187.436 294.409C191.528 293.177 196.11 293.762 199.894 296.376C206.506 300.943 208.157 310.012 203.583 316.624Z" stroke="#263238" stroke-miterlimit="10" stroke-linecap="round" stroke-linejoin="round"/>
<path d="M170.83 310.66C178.871 310.66 185.389 304.141 185.389 296.1C185.389 288.059 178.871 281.54 170.83 281.54C162.789 281.54 156.27 288.059 156.27 296.1C156.27 304.141 162.789 310.66 170.83 310.66Z" fill="#FF725E" stroke="#263238" stroke-miterlimit="10" stroke-linecap="round" stroke-linejoin="round"/>
<path opacity="0.3" d="M170.83 308.345C177.592 308.345 183.075 302.863 183.075 296.1C183.075 289.337 177.592 283.855 170.83 283.855C164.067 283.855 158.585 289.337 158.585 296.1C158.585 302.863 164.067 308.345 170.83 308.345Z" fill="black" fill-opacity="0.7"/>
<path d="M170.83 308.345C177.592 308.345 183.075 302.863 183.075 296.1C183.075 289.337 177.592 283.855 170.83 283.855C164.067 283.855 158.585 289.337 158.585 296.1C158.585 302.863 164.067 308.345 170.83 308.345Z" stroke="#263238" stroke-miterlimit="10" stroke-linecap="round" stroke-linejoin="round"/>
<path d="M169.937 289.282V288.247H171.722V289.282C173.271 289.598 174.069 290.791 174.069 292.679V293.114H171.999V292.537C171.999 291.542 171.604 291.162 170.909 291.162C170.214 291.162 169.819 291.542 169.819 292.537C169.819 293.532 170.214 294.228 171.683 295.397C173.468 296.827 174.085 297.917 174.085 299.505C174.085 301.393 173.271 302.602 171.722 302.918V303.929H169.937V302.918C168.365 302.602 167.575 301.385 167.575 299.505V298.549H169.645V299.639C169.645 300.635 170.079 300.99 170.774 300.99C171.47 300.99 171.904 300.635 171.904 299.639C171.904 298.644 171.509 297.933 170.04 296.779C168.254 295.365 167.638 294.259 167.638 292.663C167.63 290.815 168.404 289.622 169.937 289.282Z" fill="#FF725E" stroke="#263238" stroke-miterlimit="10" stroke-linecap="round" stroke-linejoin="round"/>
<path d="M252.545 308.323C256.884 301.552 254.912 292.547 248.141 288.208C241.37 283.87 232.365 285.842 228.027 292.613C223.689 299.383 225.661 308.389 232.431 312.727C239.202 317.065 248.207 315.093 252.545 308.323Z" fill="#FF725E" stroke="#263238" stroke-miterlimit="10" stroke-linecap="round" stroke-linejoin="round"/>
<path opacity="0.3" d="M249.253 292.15C253.859 297.103 253.567 304.853 248.613 309.459C243.66 314.065 235.91 313.772 231.304 308.819C226.699 303.866 226.991 296.116 231.944 291.51C236.906 286.904 244.655 287.189 249.253 292.15Z" fill="black" fill-opacity="0.7"/>
<path d="M249.253 292.15C253.859 297.103 253.567 304.853 248.613 309.459C243.66 314.065 235.91 313.772 231.304 308.819C226.699 303.866 226.991 296.116 231.944 291.51C236.906 286.904 244.655 287.189 249.253 292.15Z" stroke="#263238" stroke-miterlimit="10" stroke-linecap="round" stroke-linejoin="round"/>
<path d="M234.994 296.1L234.291 295.342L235.602 294.125L236.305 294.883C237.656 294.062 239.046 294.394 240.334 295.776L240.634 296.1L239.117 297.506L238.722 297.087C238.043 296.361 237.498 296.353 236.992 296.827C236.487 297.301 236.447 297.846 237.127 298.573C237.806 299.3 238.564 299.537 240.445 299.394C242.728 299.228 243.921 299.608 245.003 300.769C246.291 302.151 246.512 303.597 245.595 304.877L246.283 305.619L244.971 306.836L244.284 306.093C242.917 306.931 241.511 306.583 240.231 305.201L239.584 304.506L241.1 303.099L241.843 303.897C242.522 304.624 243.083 304.592 243.589 304.118C244.094 303.644 244.173 303.084 243.502 302.357C242.823 301.63 242.048 301.377 240.184 301.535C237.917 301.717 236.708 301.322 235.626 300.161C234.346 298.786 234.101 297.388 234.994 296.1Z" fill="#FF725E" stroke="#263238" stroke-miterlimit="10" stroke-linecap="round" stroke-linejoin="round"/>
<path opacity="0.2" d="M234.29 237.198C234.29 237.198 234.227 267.407 234.29 269.169C234.354 270.931 236.637 281.54 236.637 281.54L229.305 295.057L235.618 300.145L247.902 288.066C247.902 288.066 258.362 294.528 260.273 303.771C262.185 313.014 273.569 319.745 285.38 345.341C297.19 370.937 310.66 288.066 310.66 288.066L274.217 242.182L234.29 237.198Z" fill="black" fill-opacity="0.7"/>
<path d="M345.696 74.8999L334.533 183.825L327.668 250.833L231.731 241.005L213.063 239.094L201.11 237.869L211.704 134.458L219.138 61.936L345.696 74.8999Z" fill="white"/>
<path d="M308.938 78.9685L254.309 73.3674C253.282 73.2647 252.366 74.0073 252.263 75.0343C252.16 76.0613 252.903 76.9777 253.93 77.0804L308.558 82.6815C309.585 82.7842 310.502 82.0416 310.604 81.0146C310.715 79.9876 309.965 79.0712 308.938 78.9685Z" fill="#263238"/>
<path d="M294.504 85.2016L267.186 82.405C266.672 82.3497 266.214 82.7289 266.159 83.2345C266.104 83.748 266.483 84.2062 266.988 84.2615L294.307 87.0581C294.82 87.1134 295.278 86.7342 295.334 86.2286C295.389 85.7072 295.01 85.249 294.504 85.2016Z" fill="#263238"/>
<path d="M324.556 165.592L235.886 156.507C235.373 156.452 234.914 156.831 234.859 157.336C234.804 157.85 235.183 158.308 235.689 158.363L324.358 167.448C324.872 167.504 325.33 167.124 325.385 166.619C325.441 166.113 325.069 165.639 324.556 165.592Z" fill="#263238"/>
<path d="M323.868 172.267L220.766 161.705C220.252 161.65 219.794 162.029 219.739 162.535C219.683 163.048 220.062 163.506 220.568 163.562L323.671 174.124C324.184 174.179 324.643 173.8 324.698 173.294C324.753 172.781 324.382 172.323 323.868 172.267Z" fill="#263238"/>
<path d="M294.314 175.988L220.086 168.381C219.573 168.325 219.114 168.705 219.059 169.21C219.004 169.724 219.383 170.182 219.889 170.237L294.117 177.845C294.63 177.9 295.089 177.521 295.144 177.015C295.199 176.51 294.828 176.036 294.314 175.988Z" fill="#263238"/>
<path d="M218.91 175.576L215.895 205.016L319.837 215.663L322.852 186.223L218.91 175.576Z" fill="#BFBFBF" stroke="#263238" stroke-miterlimit="10"/>
<path d="M266.581 141.518C276.399 133.338 277.727 118.748 269.547 108.93C261.367 99.1113 246.777 97.7831 236.958 105.963C227.14 114.143 225.812 128.734 233.992 138.552C242.172 148.37 256.762 149.699 266.581 141.518Z" fill="#FF725E"/>
<path opacity="0.5" d="M266.581 141.519C276.4 133.339 277.728 118.748 269.548 108.93C261.367 99.1111 246.777 97.783 236.958 105.963C227.14 114.143 225.812 128.734 233.992 138.552C242.172 148.371 256.763 149.699 266.581 141.519Z" fill="white"/>
<path d="M266.581 141.518C276.399 133.338 277.727 118.748 269.547 108.93C261.367 99.1113 246.777 97.7831 236.958 105.963C227.14 114.143 225.812 128.734 233.992 138.552C242.172 148.37 256.762 149.699 266.581 141.518Z" stroke="#263238" stroke-width="1.00001" stroke-miterlimit="10"/>
<path d="M252.437 123.682L271.681 133.368C272.771 131.116 273.49 128.644 273.759 126.013C274.367 120.072 272.558 114.439 269.137 110.094L252.437 123.682Z" fill="white"/>
<path d="M252.563 122.64L268.679 109.526C266.301 106.705 263.228 104.47 259.681 103.111L256.774 111.09L252.563 122.64Z" fill="#FF725E"/>
<path d="M254.388 101.815L252.437 120.886L259.001 102.866C257.532 102.36 255.992 102.005 254.388 101.815Z" fill="#757575"/>
<path d="M251.433 123.509L253.661 101.736C241.669 100.701 231.012 109.478 229.779 121.494C229.377 125.412 230.032 129.189 231.494 132.554L251.433 123.509Z" fill="#999999"/>
<path d="M249.521 145.739C258.78 146.687 267.281 141.773 271.349 134.008L251.765 124.156L231.802 133.226C235.009 139.964 241.55 144.926 249.521 145.739Z" fill="#BFBFBF"/>
<path d="M288.532 112.354L285.893 112.085C285.625 112.054 285.427 111.817 285.451 111.54L285.72 108.902C285.751 108.633 285.988 108.436 286.265 108.459L288.903 108.728C289.172 108.759 289.369 108.996 289.346 109.273L289.077 111.912C289.045 112.18 288.808 112.378 288.532 112.354Z" fill="#FF725E" stroke="#263238" stroke-miterlimit="10"/>
<path d="M325.583 113.823L291.565 110.339C291.336 110.316 291.17 110.11 291.194 109.881C291.218 109.652 291.423 109.486 291.652 109.51L325.662 112.994C325.891 113.017 326.057 113.223 326.033 113.452C326.017 113.681 325.812 113.847 325.583 113.823Z" fill="#263238"/>
<path d="M322.067 115.293L291.384 112.148C291.155 112.125 290.989 111.919 291.013 111.69C291.036 111.461 291.242 111.295 291.471 111.319L322.154 114.463C322.383 114.487 322.549 114.692 322.526 114.921C322.502 115.15 322.297 115.316 322.067 115.293Z" fill="#263238"/>
<path d="M287.702 120.467L285.064 120.199C284.795 120.167 284.598 119.93 284.621 119.653L284.89 117.015C284.922 116.746 285.159 116.549 285.435 116.572L288.074 116.841C288.342 116.873 288.54 117.11 288.516 117.386L288.247 120.025C288.216 120.301 287.971 120.499 287.702 120.467Z" fill="#757575" stroke="#263238" stroke-miterlimit="10" stroke-linecap="round" stroke-linejoin="round"/>
<path d="M324.753 121.937L290.744 118.453C290.515 118.429 290.349 118.224 290.373 117.994C290.396 117.765 290.602 117.599 290.831 117.623L324.84 121.107C325.069 121.131 325.235 121.336 325.212 121.565C325.188 121.794 324.983 121.96 324.753 121.937Z" fill="#263238"/>
<path d="M321.23 123.414L290.546 120.27C290.317 120.246 290.151 120.04 290.175 119.811C290.199 119.582 290.404 119.416 290.633 119.44L321.317 122.584C321.546 122.608 321.712 122.813 321.688 123.042C321.672 123.264 321.467 123.437 321.23 123.414Z" fill="#263238"/>
<path d="M286.873 128.58L284.234 128.312C283.966 128.28 283.768 128.043 283.792 127.767L284.061 125.128C284.092 124.86 284.329 124.662 284.606 124.686L287.244 124.954C287.513 124.986 287.71 125.223 287.687 125.499L287.418 128.138C287.386 128.415 287.142 128.612 286.873 128.58Z" fill="#999999" stroke="#263238" stroke-miterlimit="10" stroke-linecap="round" stroke-linejoin="round"/>
<path d="M323.916 130.058L289.907 126.574C289.678 126.55 289.512 126.345 289.535 126.116C289.559 125.887 289.765 125.721 289.994 125.744L324.003 129.228C324.232 129.252 324.398 129.457 324.374 129.687C324.351 129.916 324.145 130.082 323.916 130.058Z" fill="#263238"/>
<path d="M320.401 131.527L289.717 128.383C289.488 128.359 289.322 128.154 289.346 127.925C289.369 127.696 289.575 127.53 289.804 127.554L320.488 130.698C320.717 130.721 320.883 130.927 320.859 131.156C320.835 131.385 320.63 131.551 320.401 131.527Z" fill="#263238"/>
<path d="M286.036 136.702L283.397 136.433C283.128 136.402 282.931 136.165 282.955 135.888L283.223 133.25C283.255 132.981 283.492 132.783 283.768 132.807L286.407 133.076C286.675 133.107 286.873 133.344 286.849 133.621L286.581 136.259C286.557 136.528 286.312 136.725 286.036 136.702Z" fill="#BFBFBF" stroke="#263238" stroke-miterlimit="10"/>
<path d="M323.087 138.171L289.077 134.687C288.848 134.664 288.682 134.458 288.706 134.229C288.73 134 288.935 133.834 289.164 133.858L323.174 137.342C323.403 137.365 323.569 137.571 323.545 137.8C323.521 138.029 323.316 138.195 323.087 138.171Z" fill="#263238"/>
<path d="M319.571 139.641L288.887 136.496C288.658 136.473 288.492 136.267 288.516 136.038C288.54 135.809 288.745 135.643 288.974 135.667L319.658 138.811C319.887 138.835 320.053 139.04 320.029 139.269C320.006 139.498 319.8 139.664 319.571 139.641Z" fill="#263238"/>
<path d="M285.206 144.815L282.567 144.546C282.299 144.515 282.101 144.278 282.125 144.001L282.394 141.363C282.425 141.094 282.662 140.897 282.939 140.92L285.577 141.189C285.846 141.221 286.043 141.458 286.02 141.734L285.751 144.373C285.719 144.649 285.482 144.847 285.206 144.815Z" fill="white" stroke="#263238" stroke-miterlimit="10" stroke-linecap="round" stroke-linejoin="round"/>
<path d="M322.257 146.284L288.248 142.8C288.018 142.777 287.853 142.571 287.876 142.342C287.9 142.113 288.105 141.947 288.334 141.971L322.344 145.455C322.573 145.479 322.739 145.684 322.715 145.913C322.692 146.142 322.486 146.308 322.257 146.284Z" fill="#263238"/>
<path d="M318.741 147.754L288.058 144.61C287.829 144.586 287.663 144.38 287.687 144.151C287.71 143.922 287.916 143.756 288.145 143.78L318.828 146.924C319.057 146.948 319.223 147.153 319.2 147.382C319.176 147.612 318.971 147.777 318.741 147.754Z" fill="#263238"/>
<path d="M307.132 205.722L309.073 205.921L310.211 194.816L308.27 194.617L307.132 205.722Z" fill="#757575" stroke="#263238" stroke-miterlimit="10" stroke-linecap="round" stroke-linejoin="round"/>
<path d="M307.289 204.069L309.23 204.268L309.766 199.042L307.825 198.843L307.289 204.069Z" fill="#FF725E" stroke="#263238" stroke-miterlimit="10"/>
<path d="M311.779 203.387L313.72 203.586L314.857 192.482L312.916 192.283L311.779 203.387Z" fill="#757575" stroke="#263238" stroke-miterlimit="10" stroke-linecap="round" stroke-linejoin="round"/>
<path d="M312.637 195.225L312.102 200.452L314.043 200.651L314.579 195.425L312.637 195.225Z" fill="#FF725E" stroke="#263238" stroke-miterlimit="10"/>
<path d="M315.931 205.96L317.872 206.158L319.01 195.054L317.069 194.855L315.931 205.96Z" fill="#757575" stroke="#263238" stroke-miterlimit="10" stroke-linecap="round" stroke-linejoin="round"/>
<path d="M316.372 201.761L318.313 201.96L318.849 196.734L316.907 196.535L316.372 201.761Z" fill="#FF725E" stroke="#263238" stroke-miterlimit="10"/>
<path d="M302.985 203.078L304.926 203.277L306.065 192.172L304.124 191.973L302.985 203.078Z" fill="#757575" stroke="#263238" stroke-miterlimit="10" stroke-linecap="round" stroke-linejoin="round"/>
<path d="M303.143 201.424L305.084 201.623L305.62 196.397L303.678 196.198L303.143 201.424Z" fill="#FF725E" stroke="#263238" stroke-miterlimit="10"/>
<path d="M298.266 205.934L300.208 206.133L301.345 195.028L299.404 194.829L298.266 205.934Z" fill="#757575" stroke="#263238" stroke-miterlimit="10" stroke-linecap="round" stroke-linejoin="round"/>
<path d="M298.407 204.66L300.349 204.859L300.884 199.633L298.943 199.434L298.407 204.66Z" fill="#FF725E" stroke="#263238" stroke-miterlimit="10"/>
<path d="M294.187 202.621L296.128 202.82L297.266 191.715L295.325 191.517L294.187 202.621Z" fill="#757575" stroke="#263238" stroke-miterlimit="10" stroke-linecap="round" stroke-linejoin="round"/>
<path d="M294.243 202.184L296.184 202.383L296.72 197.157L294.779 196.958L294.243 202.184Z" fill="#FF725E" stroke="#263238" stroke-miterlimit="10"/>
<path d="M289.233 207.954L291.174 208.153L292.312 197.048L290.371 196.849L289.233 207.954Z" fill="#757575" stroke="#263238" stroke-miterlimit="10" stroke-linecap="round" stroke-linejoin="round"/>
<path d="M289.271 207.541L291.212 207.74L291.748 202.514L289.806 202.315L289.271 207.541Z" fill="#FF725E" stroke="#263238" stroke-miterlimit="10"/>
<path d="M285.561 200.533L287.502 200.732L288.64 189.627L286.699 189.428L285.561 200.533Z" fill="#757575" stroke="#263238" stroke-miterlimit="10" stroke-linecap="round" stroke-linejoin="round"/>
<path d="M285.738 198.86L287.679 199.059L288.215 193.833L286.273 193.634L285.738 198.86Z" fill="#FF725E" stroke="#263238" stroke-miterlimit="10"/>
<path d="M281.267 199.421L283.208 199.62L284.346 188.515L282.405 188.316L281.267 199.421Z" fill="#757575" stroke="#263238" stroke-miterlimit="10" stroke-linecap="round" stroke-linejoin="round"/>
<path d="M281.687 195.253L283.628 195.452L284.163 190.225L282.222 190.027L281.687 195.253Z" fill="#FF725E" stroke="#263238" stroke-miterlimit="10"/>
<path d="M276.172 205.962L278.113 206.161L279.25 195.056L277.309 194.857L276.172 205.962Z" fill="#757575" stroke="#263238" stroke-miterlimit="10" stroke-linecap="round" stroke-linejoin="round"/>
<path d="M276.647 201.36L278.588 201.559L279.123 196.333L277.182 196.134L276.647 201.36Z" fill="#FF725E" stroke="#263238" stroke-miterlimit="10"/>
<path d="M272.3 200.63L274.241 200.829L275.378 189.724L273.437 189.526L272.3 200.63Z" fill="#757575" stroke="#263238" stroke-miterlimit="10" stroke-linecap="round" stroke-linejoin="round"/>
<path d="M272.513 198.542L274.454 198.74L274.989 193.514L273.048 193.315L272.513 198.542Z" fill="#FF725E" stroke="#263238" stroke-miterlimit="10"/>
<path d="M267.64 203.063L269.581 203.262L270.72 192.157L268.779 191.958L267.64 203.063Z" fill="#757575" stroke="#263238" stroke-miterlimit="10" stroke-linecap="round" stroke-linejoin="round"/>
<path d="M267.806 201.409L269.747 201.607L270.282 196.381L268.341 196.182L267.806 201.409Z" fill="#FF725E" stroke="#263238" stroke-miterlimit="10"/>
<path d="M262.758 207.602L264.699 207.801L265.837 196.696L263.896 196.497L262.758 207.602Z" fill="#757575" stroke="#263238" stroke-miterlimit="10" stroke-linecap="round" stroke-linejoin="round"/>
<path d="M262.754 207.618L264.695 207.817L265.23 202.591L263.289 202.392L262.754 207.618Z" fill="#FF725E" stroke="#263238" stroke-miterlimit="10"/>
<path d="M259.102 200.14L261.043 200.339L262.181 189.234L260.24 189.035L259.102 200.14Z" fill="#757575" stroke="#263238" stroke-miterlimit="10" stroke-linecap="round" stroke-linejoin="round"/>
<path d="M259.224 198.878L261.165 199.077L261.7 193.851L259.759 193.652L259.224 198.878Z" fill="#FF725E" stroke="#263238" stroke-miterlimit="10"/>
<path d="M255.24 194.793L257.181 194.992L258.319 183.888L256.378 183.689L255.24 194.793Z" fill="#757575" stroke="#263238" stroke-miterlimit="10" stroke-linecap="round" stroke-linejoin="round"/>
<path d="M255.358 193.557L257.3 193.755L257.835 188.529L255.894 188.33L255.358 193.557Z" fill="#FF725E" stroke="#263238" stroke-miterlimit="10"/>
<path d="M250.25 200.24L252.191 200.439L253.328 189.334L251.387 189.135L250.25 200.24Z" fill="#757575" stroke="#263238" stroke-miterlimit="10" stroke-linecap="round" stroke-linejoin="round"/>
<path d="M250.691 196.038L252.632 196.237L253.168 191.01L251.227 190.811L250.691 196.038Z" fill="#FF725E" stroke="#263238" stroke-miterlimit="10"/>
<path d="M245.236 206.066L247.177 206.265L248.314 195.16L246.373 194.962L245.236 206.066Z" fill="#757575" stroke="#263238" stroke-miterlimit="10" stroke-linecap="round" stroke-linejoin="round"/>
<path d="M245.75 201.045L247.691 201.244L248.227 196.018L246.286 195.819L245.75 201.045Z" fill="#FF725E" stroke="#263238" stroke-miterlimit="10"/>
<path d="M241.508 199.341L243.449 199.54L244.586 188.435L242.645 188.236L241.508 199.341Z" fill="#757575" stroke="#263238" stroke-miterlimit="10" stroke-linecap="round" stroke-linejoin="round"/>
<path d="M241.694 197.654L243.635 197.853L244.171 192.627L242.23 192.428L241.694 197.654Z" fill="#FF725E" stroke="#263238" stroke-miterlimit="10"/>
<path d="M237.34 197.033L239.281 197.232L240.42 186.128L238.478 185.929L237.34 197.033Z" fill="#757575" stroke="#263238" stroke-miterlimit="10" stroke-linecap="round" stroke-linejoin="round"/>
<path d="M237.797 192.446L239.738 192.645L240.273 187.419L238.332 187.22L237.797 192.446Z" fill="#FF725E" stroke="#263238" stroke-miterlimit="10"/>
<path d="M232.61 200.047L234.551 200.246L235.69 189.141L233.748 188.942L232.61 200.047Z" fill="#757575" stroke="#263238" stroke-miterlimit="10" stroke-linecap="round" stroke-linejoin="round"/>
<path d="M232.6 200.059L234.541 200.258L235.076 195.032L233.135 194.833L232.6 200.059Z" fill="#FF725E" stroke="#263238" stroke-miterlimit="10"/>
<path d="M228.58 196.148L230.521 196.347L231.659 185.243L229.718 185.044L228.58 196.148Z" fill="#757575" stroke="#263238" stroke-miterlimit="10" stroke-linecap="round" stroke-linejoin="round"/>
<path d="M228.682 195.298L230.623 195.497L231.159 190.27L229.218 190.071L228.682 195.298Z" fill="#FF725E" stroke="#263238" stroke-miterlimit="10"/>
<path d="M224.055 197.198L225.996 197.397L227.134 186.292L225.192 186.093L224.055 197.198Z" fill="#757575" stroke="#263238" stroke-miterlimit="10" stroke-linecap="round" stroke-linejoin="round"/>
<path d="M224.101 196.778L226.042 196.977L226.578 191.751L224.636 191.552L224.101 196.778Z" fill="#FF725E" stroke="#263238" stroke-miterlimit="10"/>
<path d="M219.831 195.321L221.772 195.52L222.91 184.416L220.969 184.217L219.831 195.321Z" fill="#757575" stroke="#263238" stroke-miterlimit="10" stroke-linecap="round" stroke-linejoin="round"/>
<path d="M220.391 189.891L222.332 190.09L222.867 184.864L220.926 184.665L220.391 189.891Z" fill="#FF725E" stroke="#263238" stroke-miterlimit="10"/>
<path d="M319.042 219.367L230.372 210.282C229.858 210.227 229.4 210.606 229.345 211.112C229.29 211.625 229.669 212.083 230.174 212.139L318.844 221.224C319.358 221.279 319.816 220.9 319.871 220.394C319.926 219.873 319.555 219.415 319.042 219.367Z" fill="#263238"/>
<path d="M318.362 226.043L215.259 215.48C214.746 215.425 214.287 215.804 214.232 216.31C214.177 216.823 214.556 217.282 215.062 217.337L318.165 227.899C318.678 227.955 319.136 227.575 319.192 227.07C319.247 226.548 318.876 226.09 318.362 226.043Z" fill="#263238"/>
<path d="M274.367 228.278L214.572 222.148C214.058 222.093 213.6 222.472 213.545 222.977C213.49 223.491 213.869 223.949 214.374 224.004L274.17 230.135C274.683 230.19 275.141 229.811 275.197 229.305C275.252 228.792 274.881 228.334 274.367 228.278Z" fill="#263238"/>
<path opacity="0.2" d="M328.822 168.657C325.764 168.412 324.706 173.287 324.706 173.287C324.706 173.287 319.871 166.951 320.637 152.051C320.637 152.051 318.275 145.447 311.947 149.436C305.627 153.426 299.062 167.488 300.627 182.806L288.326 141.971C284.076 142.872 275.441 148.583 277.717 176.162L264.295 161.974C264.295 161.974 260.661 160.805 258.607 164.02C256.553 167.243 257.532 190.264 259.231 198.875C260.937 207.494 256.6 224.787 256.6 224.787C256.6 224.787 251.971 205.195 243.597 200.233L211.704 134.458L201.11 237.869L213.063 239.094L232.26 229.748C232.149 234.069 232.047 238.043 231.731 241.005L327.668 250.833L334.533 183.825C332.203 175.475 329.975 168.744 328.822 168.657Z" fill="black" fill-opacity="0.7"/>
<path d="M345.696 74.8999L334.533 183.825L327.668 250.833L231.731 241.005L213.063 239.094L201.11 237.869L211.704 134.458L219.138 61.936L345.696 74.8999Z" stroke="#263238" stroke-miterlimit="10" stroke-linecap="round" stroke-linejoin="round"/>
<path d="M344.116 355.318L288.026 364.862C288.026 364.862 278.262 312.998 272.44 304.829C266.617 296.653 267.684 293.296 264.856 287.789C263.149 284.463 254.594 278.262 247.879 272.139H247.871C247.286 271.61 246.717 271.081 246.172 270.551C245.935 270.338 245.714 270.109 245.493 269.896C244.6 269.011 243.771 268.15 243.036 267.304C242.767 267.004 242.515 266.704 242.278 266.404C240.879 264.674 239.892 263.054 239.56 261.593C239.536 261.514 239.52 261.435 239.513 261.348C239.489 261.245 239.473 261.15 239.465 261.056C239.315 259.831 239.157 258.433 238.999 256.916C238.967 256.616 238.936 256.3 238.896 255.984C238.881 255.857 238.865 255.739 238.849 255.605C238.715 254.341 238.565 252.998 238.391 251.615C238.217 250.169 238.027 248.668 237.806 247.159C237.735 246.638 237.664 246.117 237.577 245.587C237.577 245.579 237.577 245.572 237.569 245.572C237.482 244.987 237.387 244.402 237.293 243.81C237.206 243.304 237.119 242.799 237.032 242.293C237.016 242.206 236.992 242.127 236.985 242.056C236.874 241.464 236.763 240.887 236.653 240.302C236.629 240.239 236.621 240.176 236.613 240.105C236.503 239.591 236.4 239.086 236.281 238.572C236.037 237.427 235.76 236.305 235.46 235.215C234.867 233.042 234.172 231.012 233.366 229.211C229.322 220.181 234.583 223.444 231.415 200.21C231.415 200.21 233.746 194.822 240.389 199.128C240.903 199.459 241.393 199.823 241.875 200.21H241.883C243.218 201.284 244.403 202.556 245.414 203.986C246.733 205.843 247.76 207.968 248.463 210.274C249.514 213.711 249.854 217.558 249.364 221.571C249.364 221.571 254.357 238.683 256.987 242.578C259.626 246.472 270.496 224.099 269.793 221.492C269.651 220.971 269.454 219.699 269.232 217.953C269.185 217.566 269.138 217.155 269.082 216.721C269.035 216.286 268.98 215.836 268.932 215.37C268.901 215.149 268.877 214.912 268.845 214.683C268.837 214.588 268.829 214.493 268.814 214.406C268.719 213.513 268.608 212.565 268.506 211.586C268.482 211.309 268.45 211.049 268.419 210.78C268.371 210.314 268.324 209.832 268.276 209.358C268.261 209.287 268.261 209.208 268.253 209.121C268.221 208.852 268.19 208.576 268.166 208.292C268.103 207.739 268.047 207.178 267.992 206.617C267.937 206.135 267.897 205.653 267.85 205.171C267.755 204.263 267.668 203.354 267.581 202.477C267.518 201.821 267.455 201.174 267.4 200.542C267.384 200.399 267.368 200.257 267.36 200.123C267.028 196.647 266.768 193.787 266.673 192.571C266.673 192.571 258.765 180.863 257.951 175.349C257.137 169.826 257.209 164.028 260.519 161.666C268.355 156.088 266.064 165.079 269.572 168.799C273.08 172.536 278.46 178.619 281.509 180.523C284.321 182.308 286.834 189.245 287.189 190.256C286.786 188.739 282.765 173.824 282.678 170.822C282.575 167.654 280.158 150.945 284.266 144.949C288.366 138.961 293.833 143.606 294.339 144.791C294.844 145.976 294.994 162.163 296.44 166.674C297.894 171.177 303.937 189.956 303.937 189.956C303.937 189.956 304.19 171.691 305.557 163.514C306.915 155.346 310.47 148.947 313.946 148.583C317.422 148.22 320.638 152.051 320.638 152.051C320.638 152.051 319.263 165.086 319.658 168.096C320.045 171.098 319.089 181.977 320.74 187.823C320.74 187.823 320.551 172.252 322.968 170.261C325.393 168.27 327.463 167.314 328.822 168.657C330.173 170 330.473 179.22 331.856 184.765C333.246 190.319 333.064 197.848 333.973 206.498C334.881 215.149 338.46 227.157 337.749 234.022C337.038 240.871 334.85 257.911 333.088 267.905C331.326 277.906 326.831 291.589 326.831 291.589C326.831 291.589 328.877 298.897 328.482 305.414C328.079 311.932 344.116 355.318 344.116 355.318Z" fill="white"/>
<path opacity="0.4" d="M296.44 166.674C297.514 170.008 301.101 181.163 302.894 186.732C302.894 186.732 295.049 192.499 295.247 197.848C295.452 203.196 293.809 214.011 290.294 213.703C286.778 213.403 287.094 190.904 285.941 187.127C286.652 188.747 287.118 190.074 287.213 190.335C286.952 189.363 282.765 173.887 282.678 170.822C282.654 170.103 282.512 168.665 282.346 166.809V166.769C282.346 166.769 290.136 159.311 295.863 163.878V163.886C296.037 165.023 296.226 165.979 296.44 166.674Z" fill="#FF725E"/>
<path opacity="0.4" d="M319.737 173.105C316.087 176.565 310.581 182.688 309.886 188.589C309.886 188.589 311.924 205.06 311.055 212.249L303.937 189.964C303.937 189.964 304.19 171.699 305.557 163.522C305.596 163.301 305.635 163.072 305.675 162.843C309.167 161.057 313.954 159.462 319.966 159.351C319.69 162.874 319.468 166.651 319.658 168.096C319.777 169.076 319.769 170.893 319.737 173.105Z" fill="#FF725E"/>
<path opacity="0.4" d="M322.968 170.261C322.952 170.277 322.944 170.285 322.936 170.285C322.85 170.348 322.636 170.514 322.328 170.775C322.526 170.411 322.731 170.064 322.952 169.748L322.968 170.261Z" fill="#FF725E"/>
<path opacity="0.4" d="M324.825 215.82C324.825 215.82 320.132 198.219 320.053 184.046C320.021 178.801 320.622 174.021 322.32 170.79L322.328 170.782C322.526 170.419 322.731 170.071 322.952 169.755L322.968 170.269C323.971 169.447 324.904 168.799 325.765 168.42C324.445 170.474 322.929 174.495 324.682 181.029C327.439 191.259 325.038 203.765 324.825 215.82Z" fill="#FF725E"/>
<path opacity="0.4" d="M260.1 249.364C260.1 249.364 261.364 266.135 247.879 272.147H247.871C247.286 271.618 246.725 271.089 246.172 270.559C245.935 270.338 245.714 270.117 245.493 269.904C244.6 269.019 243.771 268.158 243.036 267.312C242.767 267.004 242.514 266.704 242.277 266.412C240.879 264.682 239.892 263.062 239.56 261.601C239.536 261.522 239.52 261.435 239.512 261.356C239.489 261.253 239.473 261.158 239.465 261.063C239.315 259.839 239.157 258.441 238.999 256.924C238.967 256.624 238.936 256.308 238.896 255.992C238.88 255.865 238.865 255.739 238.857 255.612C238.715 254.348 238.564 253.005 238.399 251.623C238.225 250.177 238.035 248.676 237.814 247.167C237.735 246.646 237.664 246.117 237.585 245.595C237.585 245.587 237.585 245.579 237.577 245.579C237.49 244.995 237.395 244.402 237.3 243.818C237.214 243.312 237.127 242.807 237.04 242.293C237.024 242.214 237.008 242.135 236.992 242.056C236.882 241.471 236.771 240.887 236.653 240.302C236.637 240.239 236.621 240.168 236.613 240.105C236.51 239.591 236.4 239.078 236.289 238.572C236.029 237.427 235.76 236.305 235.46 235.215C240.792 230.08 253.1 233.303 247.144 221.413C247.144 221.413 250.146 211.238 241.875 200.202H241.882C247.539 204.768 250.438 212.779 249.364 221.571C249.364 221.571 254.357 238.675 256.987 242.577C259.626 246.472 270.496 224.099 269.785 221.492C269.651 220.979 269.453 219.699 269.232 217.953C269.185 217.566 269.137 217.155 269.082 216.721C269.027 216.286 268.979 215.836 268.924 215.37C268.893 215.149 268.869 214.92 268.845 214.69C268.837 214.596 268.829 214.501 268.814 214.414C268.719 213.513 268.616 212.573 268.505 211.586C268.482 211.317 268.45 211.049 268.419 210.78C268.371 210.314 268.324 209.84 268.276 209.358C268.268 209.287 268.261 209.208 268.253 209.121C268.229 208.852 268.189 208.576 268.166 208.284C268.103 207.731 268.055 207.17 267.992 206.609C267.945 206.127 267.897 205.645 267.85 205.163C267.763 204.255 267.668 203.346 267.589 202.469C267.526 201.813 267.463 201.158 267.399 200.542C267.384 200.399 267.376 200.257 267.36 200.115C267.581 201.15 271.586 220.22 273.87 224.66C276.216 229.242 266.254 253.314 260.1 249.364Z" fill="#FF725E"/>
<path opacity="0.4" d="M333.088 267.905C331.326 277.906 326.839 291.589 326.839 291.589C326.839 291.589 328.885 298.897 328.482 305.414C328.372 307.168 329.462 311.592 331.089 317.122C330.615 315.905 325.583 302.855 325.662 298.304C325.757 293.525 324.398 292.205 321.736 286.336C319.081 280.458 315.013 281.114 315.013 281.114C315.013 281.114 313.448 295.76 309.767 286.138C306.094 276.508 305.383 265.322 314.649 226.454C314.649 226.454 316.048 231.328 314.878 245.809C313.701 260.297 317.169 264.674 317.169 264.674C317.169 264.674 324.659 252.342 329.485 235.949C329.485 235.949 328.293 252.848 327.218 260.55C326.152 268.245 331.018 251.631 334.415 241.361C337.607 231.731 337.725 228.065 336.509 221.208C337.409 226.043 338.089 230.649 337.741 234.014C337.038 240.871 334.85 257.911 333.088 267.905Z" fill="#FF725E"/>
<path opacity="0.4" d="M269.706 300.485C272.44 304.83 279.131 310.573 283.121 326.46C287.11 342.347 284.598 359.735 284.598 359.735L269.706 300.485Z" fill="#FF725E"/>
<path opacity="0.2" d="M248.463 210.274C248.463 210.274 234.472 217.361 233.366 229.211C229.321 220.181 234.583 223.444 231.415 200.21C231.415 200.21 233.745 194.822 240.389 199.128C240.903 199.459 241.393 199.823 241.874 200.21H241.882C243.217 201.284 244.402 202.556 245.414 203.986L248.463 210.274Z" fill="black" fill-opacity="0.7"/>
<path d="M288.026 364.862C288.026 364.862 278.27 312.998 272.44 304.83C266.617 296.661 267.684 293.296 264.856 287.789C262.027 282.283 240.421 268.885 239.465 261.056C238.509 253.235 237.411 238.241 233.366 229.211C229.321 220.173 234.583 223.444 231.407 200.21C231.407 200.21 233.753 194.83 240.389 199.128C247.025 203.433 250.525 212.044 249.364 221.579C249.364 221.579 254.356 238.683 256.987 242.578C259.626 246.48 270.488 224.1 269.785 221.485C269.082 218.87 266.996 196.623 266.673 192.571C266.673 192.571 258.765 180.855 257.951 175.349C257.137 169.834 257.208 164.028 260.518 161.674C268.355 156.096 266.064 165.087 269.572 168.815C273.079 172.544 278.459 178.627 281.509 180.539C284.558 182.451 287.228 190.39 287.228 190.39C287.228 190.39 282.773 174.006 282.678 170.838C282.583 167.67 280.158 150.961 284.266 144.973C288.374 138.985 293.841 143.63 294.338 144.807C294.844 145.992 295.002 162.179 296.448 166.682C297.893 171.193 303.937 189.972 303.937 189.972C303.937 189.972 304.198 171.707 305.556 163.53C306.923 155.354 310.478 148.955 313.946 148.599C317.422 148.236 320.637 152.067 320.637 152.067C320.637 152.067 319.263 165.102 319.65 168.112C320.037 171.122 319.089 181.993 320.74 187.839C320.74 187.839 320.543 172.268 322.968 170.277C325.393 168.286 327.463 167.33 328.814 168.673C330.173 170.016 330.465 179.235 331.855 184.781C333.238 190.327 333.064 197.864 333.973 206.514C334.881 215.165 338.46 227.173 337.749 234.03C337.038 240.887 334.842 257.919 333.08 267.921C331.318 277.922 326.831 291.605 326.831 291.605C326.831 291.605 328.877 298.913 328.474 305.43C328.071 311.948 344.108 355.334 344.108 355.334" stroke="#263238" stroke-miterlimit="10" stroke-linecap="round" stroke-linejoin="round"/>
<path d="M303.929 189.956C305.564 193.795 309.601 210.006 311.047 212.249C312.493 214.493 314.128 215.172 314.128 215.172" stroke="#263238" stroke-miterlimit="10" stroke-linecap="round" stroke-linejoin="round"/>
<path d="M320.74 187.823C320.74 187.823 320.393 191.141 322.186 201.734C323.979 212.32 324.856 216.831 325.859 219.193" stroke="#263238" stroke-miterlimit="10" stroke-linecap="round" stroke-linejoin="round"/>
<path d="M287.228 190.374C289.424 196.829 290.657 207.114 291.905 210.211C293.153 213.308 294.267 213.948 294.267 213.948" stroke="#263238" stroke-miterlimit="10" stroke-linecap="round" stroke-linejoin="round"/>
<path d="M290.775 205.858C290.775 205.858 293.074 207.565 293.809 209.69" stroke="#263238" stroke-miterlimit="10" stroke-linecap="round" stroke-linejoin="round"/>
<path d="M256.995 242.577C256.995 242.577 258.196 251.133 263.56 250.454" stroke="#263238" stroke-miterlimit="10" stroke-linecap="round" stroke-linejoin="round"/>
<path d="M269.785 221.484C269.785 221.484 271.176 231.652 268.893 235.973" stroke="#263238" stroke-miterlimit="10" stroke-linecap="round" stroke-linejoin="round"/>
<path d="M312.635 221.579C312.635 221.579 316.237 223.783 313.828 230.254C311.418 236.724 307.231 262.825 307.231 262.825" stroke="#263238" stroke-miterlimit="10" stroke-linecap="round" stroke-linejoin="round"/>
<path d="M328.316 228.405C329.825 234.251 329.959 234.401 327.51 241.582C325.054 248.763 321.104 266.348 321.104 266.348" stroke="#263238" stroke-miterlimit="10" stroke-linecap="round" stroke-linejoin="round"/>
<path d="M326.839 291.589C326.839 291.589 324.485 286.833 326.428 282.923" stroke="#263238" stroke-miterlimit="10" stroke-linecap="round" stroke-linejoin="round"/>
<path d="M272.439 304.829C272.439 304.829 278.396 313.195 280.987 322.557" stroke="#263238" stroke-miterlimit="10" stroke-linecap="round" stroke-linejoin="round"/>
<path d="M316.269 158.182L317.88 156.594L318.607 156.381L318.56 157.171L317.075 159.059L316.269 158.182Z" fill="#757575" stroke="#263238" stroke-miterlimit="10" stroke-linecap="round" stroke-linejoin="round"/>
<path d="M317.572 159.067L314.957 165.015L244.489 258.97L236.637 253.969L247.294 240.603L310.589 161.208L316.174 157.661C316.166 157.653 317.359 157.961 317.572 159.067Z" fill="#FF725E"/>
<path opacity="0.3" d="M317.572 159.067L314.957 165.015L244.489 258.97L236.637 253.969L247.294 240.603C252.192 240.097 253.006 242.988 253.006 242.988L313.717 163.751C313.125 161.618 310.589 161.208 310.589 161.208L316.174 157.661C316.166 157.653 317.359 157.961 317.572 159.067Z" fill="black" fill-opacity="0.7"/>
<path d="M317.572 159.067L314.957 165.015L244.489 258.97L236.637 253.969L247.294 240.603L310.589 161.208L316.174 157.661C316.166 157.653 317.359 157.961 317.572 159.067Z" stroke="#263238" stroke-miterlimit="10" stroke-linecap="round" stroke-linejoin="round"/>
<path d="M267.47 231.146C267.47 231.146 259.61 246.757 252.042 257.801L246.638 259.199C246.638 259.199 234.235 271.523 226.667 277.677C226.667 277.677 224.724 276.547 222.97 274.572C222.97 274.572 233.714 253.938 245.603 240.879C245.603 240.879 247.333 241.408 249.506 242.949C250.794 243.865 252.247 245.129 253.574 246.851L266.823 230.182L267.47 231.146Z" fill="#FF725E"/>
<path opacity="0.3" d="M267.47 231.146C267.47 231.146 259.61 246.757 252.042 257.801L246.638 259.199C246.638 259.199 234.235 271.523 226.667 277.677L226.872 274.328C235.08 261.79 245.508 248.115 249.498 242.949C250.786 243.865 252.239 245.129 253.566 246.851L246.204 256.679L250.422 255.921L266.815 230.182L267.47 231.146Z" fill="black" fill-opacity="0.7"/>
<path d="M267.47 231.146C267.47 231.146 259.61 246.757 252.042 257.801L246.638 259.199C246.638 259.199 234.235 271.523 226.667 277.677C226.667 277.677 224.724 276.547 222.97 274.572C222.97 274.572 233.714 253.938 245.603 240.879C245.603 240.879 247.333 241.408 249.506 242.949C250.794 243.865 252.247 245.129 253.574 246.851L266.823 230.182L267.47 231.146Z" stroke="#263238" stroke-miterlimit="10" stroke-linecap="round" stroke-linejoin="round"/>
<path d="M294.26 213.948L272.25 235.294L268.735 238.707C271.144 232.513 269.975 222.946 269.825 221.777C269.825 221.769 269.825 221.761 269.825 221.761C269.817 221.698 269.809 221.658 269.809 221.658C269.809 221.603 269.801 221.532 269.793 221.492C269.659 220.979 269.461 219.699 269.24 217.953C269.193 217.566 269.145 217.155 269.09 216.721C269.035 216.286 268.987 215.836 268.932 215.37C268.901 215.149 268.877 214.92 268.853 214.691C268.845 214.596 268.837 214.501 268.822 214.414C268.727 213.521 268.616 212.573 268.513 211.586C268.49 211.317 268.458 211.049 268.427 210.78C268.379 210.314 268.332 209.84 268.284 209.358C268.276 209.287 268.269 209.208 268.261 209.121C268.237 208.852 268.197 208.576 268.174 208.284C268.111 207.731 268.063 207.17 268 206.609C267.953 206.127 267.905 205.645 267.858 205.163C267.771 204.255 267.676 203.346 267.597 202.469C267.526 201.814 267.463 201.166 267.407 200.542C267.392 200.399 267.384 200.257 267.368 200.115C267.036 196.639 266.775 193.787 266.681 192.563C266.681 192.563 258.781 180.855 257.959 175.341C257.145 169.826 257.216 164.02 260.527 161.666C268.363 156.08 266.064 165.071 269.572 168.799C273.08 172.536 278.467 178.611 281.509 180.523C284.55 182.443 287.229 190.374 287.229 190.374C289.417 196.829 290.657 207.107 291.905 210.211C293.154 213.308 294.26 213.948 294.26 213.948Z" fill="white"/>
<path d="M290.775 205.858C290.775 205.858 293.074 207.565 293.809 209.69" stroke="#263238" stroke-miterlimit="10" stroke-linecap="round" stroke-linejoin="round"/>
<path opacity="0.4" d="M269.572 168.799C273.064 172.528 278.428 178.572 281.477 180.507C281.051 180.294 275.434 177.553 272.297 180.602C269.035 183.778 266.673 192.571 266.673 192.571C266.673 192.571 258.773 180.863 257.951 175.349C257.137 169.834 257.208 164.028 260.519 161.674C268.355 156.088 266.064 165.079 269.572 168.799Z" fill="#FF725E"/>
<path opacity="0.4" d="M272.25 235.294L268.735 238.706C271.144 232.513 269.975 222.946 269.825 221.777C269.825 221.769 269.825 221.761 269.825 221.761C269.825 221.65 269.809 221.563 269.793 221.492C269.659 220.979 269.461 219.699 269.24 217.953C269.193 217.566 269.145 217.155 269.09 216.721C269.035 216.286 268.987 215.836 268.932 215.37C268.901 215.149 268.877 214.92 268.853 214.691C268.845 214.596 268.837 214.501 268.822 214.414C268.727 213.513 268.624 212.573 268.513 211.586C268.49 211.317 268.458 211.049 268.427 210.78C268.379 210.314 268.332 209.84 268.284 209.358C268.276 209.287 268.269 209.208 268.261 209.121C268.237 208.852 268.197 208.576 268.174 208.284C268.111 207.731 268.063 207.17 268 206.609C267.953 206.127 267.905 205.645 267.858 205.163C267.771 204.255 267.676 203.346 267.597 202.469C267.534 201.813 267.471 201.158 267.407 200.542C267.392 200.399 267.384 200.257 267.368 200.115C267.589 201.15 271.594 220.22 273.878 224.66C274.731 226.351 273.925 230.688 272.25 235.294Z" fill="#FF725E"/>
<path d="M294.259 213.948C294.259 213.948 293.145 213.308 291.897 210.211C290.649 207.114 289.409 196.829 287.221 190.374C287.221 190.374 284.542 182.435 281.501 180.523C278.451 178.611 273.08 172.528 269.564 168.799C266.056 165.071 268.347 156.08 260.511 161.658C257.201 164.012 257.137 169.819 257.943 175.333C258.757 180.847 266.665 192.555 266.665 192.555C266.989 196.615 269.074 218.862 269.777 221.469" stroke="#263238" stroke-miterlimit="10" stroke-linecap="round" stroke-linejoin="round"/>
<path d="M269.785 221.485C269.785 221.485 271.176 231.652 268.893 235.973" stroke="#263238" stroke-miterlimit="10" stroke-linecap="round" stroke-linejoin="round"/>
<path opacity="0.2" d="M134.671 233.927C134.671 233.927 139.672 257.145 128.841 274.043C118.01 290.933 109.676 295.444 105.923 300.484C102.171 305.525 87.5004 333.704 87.5004 333.704L70.3574 282.931L87.5004 220.118L134.671 233.927Z" fill="black" fill-opacity="0.7"/>
<path d="M235.712 216.176L129.41 260.913L118.453 265.527L97.8021 216.46L49.8491 102.518L167.109 53.167L235.712 216.176Z" fill="white"/>
<path d="M136.812 74.3786L86.1971 95.677C85.2491 96.0799 84.7988 97.1701 85.2017 98.1181C85.6046 99.0661 86.6948 99.5164 87.6428 99.1135L138.258 77.8151C139.206 77.4122 139.656 76.322 139.254 75.374C138.859 74.4181 137.76 73.9757 136.812 74.3786Z" fill="#263238"/>
<path d="M127.135 86.7735L101.823 97.4227C101.349 97.6202 101.128 98.1732 101.326 98.6472C101.523 99.1212 102.076 99.3424 102.55 99.1449L127.862 88.4957C128.336 88.2982 128.557 87.7452 128.359 87.2712C128.154 86.7972 127.609 86.5681 127.135 86.7735Z" fill="#263238"/>
<path d="M168.776 151.656C168.776 151.656 169.842 160.038 166.722 161.357C163.87 162.558 160.117 158.055 156.839 159.438C153.56 160.82 156.144 172.702 152.984 174.037C149.824 175.364 146.016 170.482 143.29 171.627C140.565 172.773 142.216 178.888 139.404 180.073C137.081 181.052 133.763 176.186 131.109 175.119C130.548 174.89 130.01 174.835 129.529 175.04C126.748 176.209 128.13 188.984 125.729 189.987C124.931 190.327 124.236 190.382 123.596 190.335C122.648 190.271 121.81 189.987 120.886 190.082C120.562 190.113 120.23 190.192 119.875 190.343C117.829 191.204 118.105 197.927 116.233 198.717C114.361 199.507 112.512 198.527 110.513 199.372C108.515 200.218 108.546 203.709 105.568 204.965L106.832 207.96L179.599 177.339" fill="#BFBFBF"/>
<path d="M168.776 151.656C168.776 151.656 169.842 160.038 166.722 161.357C163.87 162.558 160.117 158.055 156.839 159.438C153.56 160.82 156.144 172.702 152.984 174.037C149.824 175.364 146.016 170.482 143.29 171.627C140.565 172.773 142.216 178.888 139.404 180.073C137.081 181.052 133.763 176.186 131.109 175.119C130.548 174.89 130.01 174.835 129.529 175.04C126.748 176.209 128.13 188.984 125.729 189.987C124.931 190.327 124.236 190.382 123.596 190.335C122.648 190.271 121.81 189.987 120.886 190.082C120.562 190.113 120.23 190.192 119.875 190.343C117.829 191.204 118.105 197.927 116.233 198.717C114.361 199.507 112.512 198.527 110.513 199.372C108.515 200.218 108.546 203.709 105.568 204.965L106.832 207.96L179.599 177.339" stroke="#263238" stroke-miterlimit="10"/>
<path d="M92.0825 172.947L106.816 207.952L183.004 175.893" stroke="#263238" stroke-miterlimit="10" stroke-linecap="round" stroke-linejoin="round"/>
<path d="M174.63 165.568C174.63 165.568 174.274 165.126 173.729 164.604C172.789 163.696 171.296 162.542 170.158 163.016C169.044 163.483 168.95 165.331 168.973 167.298C168.997 169.7 169.21 172.275 168.002 172.789C166.975 173.223 166.058 172.568 165.11 171.864C164.028 171.059 162.922 170.174 161.587 170.735C159.343 171.683 160.023 174.606 159.233 177.11C158.83 178.39 158.04 179.559 156.278 180.302C154.335 181.115 152.367 180.317 150.519 179.053C147.39 176.92 144.578 173.46 142.753 174.227C139.854 175.443 143.053 183.288 139.933 184.599C138.195 185.334 134.592 179.843 131.093 175.127C128.328 171.39 125.626 168.144 123.959 168.839C120.199 170.419 126.392 189.165 123.659 190.319C123.635 190.327 123.604 190.343 123.572 190.35C122.434 190.801 121.597 190.516 120.862 190.098C119.875 189.537 119.077 188.747 117.987 189.205C115.972 190.05 117.157 197.397 114.937 198.337C112.717 199.27 111.39 197.919 108.894 198.969C106.784 199.854 105.528 204.973 105.528 204.973L106.792 207.967L179.559 177.347" fill="#757575"/>
<path d="M174.63 165.568C174.63 165.568 174.274 165.126 173.729 164.604C172.789 163.696 171.296 162.542 170.158 163.016C169.044 163.483 168.95 165.331 168.973 167.298C168.997 169.7 169.21 172.275 168.002 172.789C166.975 173.223 166.058 172.568 165.11 171.864C164.028 171.059 162.922 170.174 161.587 170.735C159.343 171.683 160.023 174.606 159.233 177.11C158.83 178.39 158.04 179.559 156.278 180.302C154.335 181.115 152.367 180.317 150.519 179.053C147.39 176.92 144.578 173.46 142.753 174.227C139.854 175.443 143.053 183.288 139.933 184.599C138.195 185.334 134.592 179.843 131.093 175.127C128.328 171.39 125.626 168.144 123.959 168.839C120.199 170.419 126.392 189.165 123.659 190.319C123.635 190.327 123.604 190.343 123.572 190.35C122.434 190.801 121.597 190.516 120.862 190.098C119.875 189.537 119.077 188.747 117.987 189.205C115.972 190.05 117.157 197.397 114.937 198.337C112.717 199.27 111.39 197.919 108.894 198.969C106.784 199.854 105.528 204.973 105.528 204.973L106.792 207.967L179.559 177.347" stroke="#263238" stroke-miterlimit="10" stroke-linecap="round" stroke-linejoin="round"/>
<path d="M159.225 190.556L133.913 201.205C133.439 201.403 133.218 201.956 133.415 202.43C133.613 202.904 134.166 203.125 134.64 202.927L159.951 192.278C160.425 192.081 160.647 191.528 160.449 191.054C160.252 190.58 159.706 190.358 159.225 190.556Z" fill="#263238"/>
<path d="M180.689 151.972L178.24 152.999C177.987 153.102 177.695 152.984 177.592 152.739L176.565 150.29C176.463 150.037 176.581 149.745 176.826 149.642L179.275 148.615C179.528 148.512 179.82 148.631 179.923 148.876L180.95 151.325C181.06 151.57 180.942 151.862 180.689 151.972Z" fill="#BFBFBF" stroke="#263238" stroke-miterlimit="10"/>
<path d="M192.5 144.491L182.388 148.749C182.174 148.836 181.93 148.741 181.843 148.528C181.756 148.315 181.851 148.07 182.064 147.983L192.176 143.725C192.389 143.638 192.634 143.733 192.721 143.946C192.808 144.159 192.713 144.396 192.5 144.491Z" fill="#263238"/>
<path d="M190.122 147.469L183.091 150.424C182.878 150.511 182.633 150.416 182.546 150.203C182.459 149.989 182.554 149.744 182.767 149.658L189.798 146.703C190.011 146.616 190.256 146.711 190.343 146.924C190.43 147.13 190.335 147.374 190.122 147.469Z" fill="#263238"/>
<path d="M183.857 159.485L181.408 160.512C181.155 160.615 180.863 160.496 180.76 160.251L179.733 157.802C179.631 157.55 179.749 157.257 179.994 157.155L182.443 156.128C182.696 156.025 182.988 156.143 183.091 156.388L184.118 158.837C184.221 159.09 184.102 159.382 183.857 159.485Z" fill="#757575" stroke="#263238" stroke-miterlimit="10" stroke-linecap="round" stroke-linejoin="round"/>
<path d="M195.66 152.012L185.548 156.27C185.334 156.357 185.089 156.262 185.003 156.049C184.916 155.835 185.01 155.59 185.224 155.504L195.336 151.245C195.549 151.159 195.794 151.253 195.881 151.467C195.976 151.672 195.873 151.917 195.66 152.012Z" fill="#263238"/>
<path d="M193.282 154.982L186.251 157.937C186.037 158.024 185.793 157.929 185.706 157.716C185.619 157.502 185.714 157.257 185.927 157.171L192.958 154.216C193.171 154.129 193.416 154.224 193.503 154.437C193.598 154.65 193.495 154.895 193.282 154.982Z" fill="#263238"/>
<path d="M208.963 183.011L126.811 217.582C126.337 217.779 126.116 218.332 126.313 218.806C126.511 219.28 127.064 219.501 127.538 219.304L209.69 184.734C210.164 184.536 210.385 183.983 210.187 183.509C209.982 183.035 209.437 182.806 208.963 183.011Z" fill="#263238"/>
<path d="M211.57 189.197L116.043 229.4C115.569 229.598 115.348 230.151 115.546 230.625C115.743 231.099 116.296 231.32 116.77 231.122L212.297 190.919C212.771 190.722 212.992 190.169 212.795 189.695C212.589 189.221 212.044 188.992 211.57 189.197Z" fill="#263238"/>
<path d="M214.169 195.383L118.642 235.586C118.168 235.783 117.947 236.336 118.145 236.81C118.342 237.284 118.895 237.505 119.369 237.308L214.896 197.105C215.37 196.907 215.591 196.354 215.394 195.88C215.196 195.406 214.643 195.177 214.169 195.383Z" fill="#263238"/>
<path d="M216.776 201.568L121.249 241.772C120.775 241.969 120.554 242.522 120.752 242.996C120.949 243.47 121.502 243.691 121.976 243.494L217.503 203.291C217.977 203.093 218.198 202.54 218.001 202.066C217.795 201.592 217.25 201.363 216.776 201.568Z" fill="#263238"/>
<path d="M179.251 224.636L123.848 247.949C123.374 248.147 123.153 248.7 123.351 249.174C123.548 249.648 124.101 249.869 124.575 249.672L179.978 226.359C180.452 226.161 180.673 225.608 180.476 225.134C180.27 224.66 179.725 224.439 179.251 224.636Z" fill="#263238"/>
<path d="M148.741 104.043C148.741 104.043 149.808 112.425 146.687 113.744C143.835 114.945 140.083 110.442 136.804 111.824C133.526 113.207 136.109 125.089 132.949 126.424C129.789 127.751 125.981 122.869 123.256 124.014C120.53 125.16 122.182 131.274 119.369 132.459C117.047 133.439 113.729 128.572 111.074 127.506C110.513 127.277 109.976 127.222 109.494 127.427C106.713 128.596 108.096 141.37 105.694 142.374C104.896 142.713 104.201 142.769 103.561 142.721C102.613 142.658 101.776 142.374 100.852 142.469C100.528 142.5 100.196 142.579 99.8403 142.729C97.7942 143.59 98.0707 150.313 96.1984 151.103C94.3261 151.893 92.4775 150.914 90.4788 151.759C88.4801 152.604 88.5117 156.096 85.5334 157.352L86.7975 160.346L159.564 129.726" fill="#BFBFBF"/>
<path d="M148.741 104.043C148.741 104.043 149.808 112.425 146.687 113.744C143.835 114.945 140.083 110.442 136.804 111.824C133.526 113.207 136.109 125.089 132.949 126.424C129.789 127.751 125.981 122.869 123.256 124.014C120.53 125.16 122.182 131.274 119.369 132.459C117.047 133.439 113.729 128.572 111.074 127.506C110.513 127.277 109.976 127.222 109.494 127.427C106.713 128.596 108.096 141.37 105.694 142.374C104.896 142.713 104.201 142.769 103.561 142.721C102.613 142.658 101.776 142.374 100.852 142.469C100.528 142.5 100.196 142.579 99.8403 142.729C97.7942 143.59 98.0707 150.313 96.1984 151.103C94.3261 151.893 92.4775 150.914 90.4788 151.759C88.4801 152.604 88.5117 156.096 85.5334 157.352L86.7975 160.346L159.564 129.726" stroke="#263238" stroke-miterlimit="10"/>
<path d="M153.442 115.221C153.442 115.221 154.105 119.282 152.502 119.961C151.167 120.522 150.345 119.74 148.939 119.693C148.378 119.669 147.722 119.764 146.901 120.112C145.613 120.649 145.305 122.387 145.076 124.259C144.791 126.558 144.649 129.046 142.966 129.757C141.789 130.255 140.517 129.963 139.206 129.505C137.12 128.778 134.916 127.624 132.799 128.517C131.772 128.952 131.053 130.066 130.492 131.448C129.173 134.711 128.762 139.435 127.332 140.035C125.302 140.889 121.581 137.397 119.78 138.155C117.979 138.914 118.713 142.05 117.252 142.666C115.79 143.282 114.953 141.465 112.378 142.548C109.802 143.63 111.058 147.438 107.424 148.962C103.79 150.487 102.202 147.683 98.6869 149.16C95.1714 150.637 95.8113 153.299 93.3386 154.342C90.8659 155.385 89.8152 153.576 88.0456 154.319C86.3234 155.045 85.8573 157.866 85.8257 158.047L86.7974 160.354L159.564 129.734" fill="#FF725E"/>
<path d="M153.442 115.221C153.442 115.221 154.105 119.282 152.502 119.961C151.167 120.522 150.345 119.74 148.939 119.693C148.378 119.669 147.722 119.764 146.901 120.112C145.613 120.649 145.305 122.387 145.076 124.259C144.791 126.558 144.649 129.046 142.966 129.757C141.789 130.255 140.517 129.963 139.206 129.505C137.12 128.778 134.916 127.624 132.799 128.517C131.772 128.952 131.053 130.066 130.492 131.448C129.173 134.711 128.762 139.435 127.332 140.035C125.302 140.889 121.581 137.397 119.78 138.155C117.979 138.914 118.713 142.05 117.252 142.666C115.79 143.282 114.953 141.465 112.378 142.548C109.802 143.63 111.058 147.438 107.424 148.962C103.79 150.487 102.202 147.683 98.6869 149.16C95.1714 150.637 95.8113 153.299 93.3386 154.342C90.8659 155.385 89.8152 153.576 88.0456 154.319C86.3234 155.045 85.8573 157.866 85.8257 158.047L86.7974 160.354L159.564 129.734" stroke="#263238" stroke-miterlimit="10"/>
<path d="M72.0481 125.341L86.7816 160.346L162.969 128.288" stroke="#263238" stroke-miterlimit="10" stroke-linecap="round" stroke-linejoin="round"/>
<path d="M138.961 142.405L113.65 153.054C113.176 153.252 112.954 153.805 113.152 154.279C113.349 154.753 113.902 154.974 114.376 154.777L139.688 144.127C140.162 143.93 140.383 143.377 140.186 142.903C139.988 142.429 139.443 142.208 138.961 142.405Z" fill="#263238"/>
<path d="M159.375 101.325L156.926 102.352C156.673 102.455 156.381 102.337 156.278 102.092L155.251 99.6428C155.148 99.39 155.267 99.0977 155.512 98.995L157.961 97.968C158.213 97.8653 158.506 97.9838 158.608 98.2287L159.635 100.678C159.746 100.93 159.628 101.215 159.375 101.325Z" fill="#BFBFBF" stroke="#263238" stroke-miterlimit="10"/>
<path d="M171.185 93.844L161.073 98.1021C160.86 98.189 160.615 98.0942 160.528 97.8809C160.441 97.6676 160.536 97.4227 160.749 97.3358L170.861 93.0777C171.075 92.9908 171.32 93.0856 171.406 93.2989C171.501 93.5122 171.399 93.7571 171.185 93.844Z" fill="#263238"/>
<path d="M168.807 96.8223L161.776 99.7769C161.563 99.8638 161.318 99.769 161.231 99.5557C161.144 99.3424 161.239 99.0975 161.453 99.0106L168.484 96.056C168.697 95.9691 168.942 96.0639 169.029 96.2772C169.116 96.4826 169.021 96.7275 168.807 96.8223Z" fill="#263238"/>
<path d="M162.543 108.846L160.094 109.873C159.841 109.976 159.549 109.857 159.446 109.613L158.419 107.164C158.316 106.911 158.435 106.618 158.68 106.516L161.129 105.489C161.381 105.386 161.674 105.505 161.776 105.749L162.803 108.198C162.906 108.443 162.788 108.736 162.543 108.846Z" fill="#FF725E" stroke="#263238" stroke-miterlimit="10"/>
<path d="M174.345 101.365L164.233 105.623C164.02 105.71 163.775 105.615 163.688 105.402C163.601 105.188 163.696 104.943 163.909 104.857L174.021 100.598C174.235 100.512 174.48 100.606 174.566 100.82C174.653 101.033 174.559 101.27 174.345 101.365Z" fill="#263238"/>
<path d="M171.967 104.343L164.936 107.298C164.723 107.385 164.478 107.29 164.391 107.076C164.304 106.863 164.399 106.618 164.612 106.531L171.643 103.577C171.857 103.49 172.102 103.585 172.189 103.798C172.283 104.003 172.181 104.248 171.967 104.343Z" fill="#263238"/>
<path opacity="0.2" d="M129.41 260.913L118.453 265.527L97.8022 216.46C99.0978 215.228 100.615 213.118 101.255 209.69C102.487 203.117 101.618 181.984 118.074 179.804C134.521 177.624 120.649 214.627 121.407 221.682C122.103 228.105 131.48 246.772 129.41 260.913Z" fill="black" fill-opacity="0.7"/>
<path d="M235.712 216.176L129.41 260.913L118.453 265.527L97.8021 216.46L49.8491 102.518L167.109 53.167L235.712 216.176Z" stroke="#263238" stroke-miterlimit="10" stroke-linecap="round" stroke-linejoin="round"/>
<path d="M122.79 224.36C124.63 218.056 131.835 197.808 130.895 188.857C130.808 188.052 130.634 187.325 130.39 186.677C127.862 179.994 117.528 180.641 113.555 186.179C109.194 192.27 105.639 203.235 105.331 209.903C105.165 213.592 103.585 216.974 102.202 219.272C102.194 219.288 102.194 219.296 102.187 219.304C101.073 221.153 100.093 222.274 100.093 222.274L76.5116 166.327C76.5116 166.327 72.7038 169.408 70.3417 173.215C69.3858 174.74 68.6748 176.399 68.5326 178.011C68.0507 183.517 61.8097 206.158 59.2106 215.717C59.1632 215.923 59.1 216.112 59.0526 216.302C56.5562 225.482 63.1448 259.578 61.2646 269.485C59.3765 279.384 58.2073 279.17 57.9387 286.201C57.7411 291.336 50.3942 306.947 42.1624 322.976C37.4461 332.163 32.4296 341.478 28.2979 349.022L88.5907 346.518C89.6335 339.194 90.7079 331.46 91.6875 323.979C92.0904 320.898 92.746 317.73 93.4886 314.728C93.4886 314.728 93.4886 314.728 93.4886 314.72C94.8158 309.348 96.4433 304.49 97.4229 301.646C98.9634 297.206 100.567 288.927 100.567 288.927C107.582 281.501 116.778 269.84 119.44 261.932C119.448 261.917 119.456 261.893 119.456 261.877C120.127 259.878 120.372 258.125 120.056 256.75C119.788 255.612 119.646 254.135 119.582 252.437C119.59 252.429 119.59 252.429 119.582 252.421C119.29 243.857 121.241 229.614 122.79 224.36Z" fill="white"/>
<path opacity="0.4" d="M102.194 219.296C100.322 223.049 98.0706 226.69 96.6328 230.901C95.195 235.104 93.6545 235.704 89.428 238.991C85.2094 242.285 82.1284 236.858 82.1284 236.858C82.1284 236.858 87.7137 231.059 85.8572 227.828C83.9928 224.597 77.0566 216.563 77.4674 212.131C77.8703 207.699 73.2567 197.761 73.2567 197.761C73.2567 197.761 83.7874 191.583 81.7413 184.362C80.6274 180.404 75.1132 176.202 70.3574 173.207C72.7195 169.4 76.5273 166.319 76.5273 166.319L100.109 222.266C100.101 222.266 101.081 221.137 102.194 219.296Z" fill="#FF725E"/>
<path opacity="0.4" d="M63.9584 253.614C64.1006 254.088 67.5292 265.408 64.6378 270.125C61.6753 274.944 58.776 281.098 60.1901 287.497C61.3198 292.616 51.8398 311.102 42.1702 322.968C50.402 306.939 57.749 291.328 57.9465 286.193C58.223 279.162 59.3843 279.376 61.2724 269.477C63.1526 259.57 56.5719 225.474 59.0604 216.294C59.1078 216.104 59.171 215.915 59.2184 215.709C61.0591 226.114 65.3488 246.835 66.5259 253.495C68.0269 261.972 64.1164 253.945 63.9584 253.614Z" fill="#FF725E"/>
<path opacity="0.4" d="M85.6677 321.925C92.675 291.755 116.257 268.624 119.448 261.924C116.786 269.824 107.59 281.493 100.575 288.919C100.575 288.919 98.9713 297.19 97.4308 301.638C96.4433 304.482 94.8238 309.34 93.4966 314.712C93.4966 314.72 93.4966 314.72 93.4966 314.72C86.6473 322.786 85.6677 321.925 85.6677 321.925Z" fill="#FF725E"/>
<path opacity="0.4" d="M122.79 224.36C121.241 229.613 119.282 243.857 119.59 252.413C118.35 247.041 115.964 240.215 115.569 230.711C114.898 214.595 124.03 220.378 120.846 212.439C117.663 204.507 108.585 214.674 113.057 197.871C116.32 185.602 125.618 185.713 130.389 186.669C130.634 187.317 130.808 188.044 130.895 188.849C131.843 197.8 124.638 218.048 122.79 224.36Z" fill="#FF725E"/>
<path d="M37.4775 332.377C45.0378 318.559 52.3927 304.347 57.6857 289.021C58.3177 286.817 57.4724 283.95 58.1123 281.745C65.2776 261.837 57.1485 241.116 58.4836 220.734C59.6054 212.699 62.1729 204.602 64.7404 196.512C65.9491 190.651 66.4073 184.101 68.3349 178.208C70.3257 173.768 72.2928 168.602 76.5272 166.326C84.5852 184.797 92.6195 203.338 100.109 222.274C103.49 220.315 104.035 215.938 104.612 212.281C106.429 203.488 108.269 195.43 111.595 188.028C114.977 182.079 123.588 179.543 128.873 184.402C130.382 185.792 131.195 187.933 131.29 190.113C130.263 200.32 127.056 210.622 123.825 220.197C122.553 224.605 121.257 228.294 120.712 232.671C120.775 234.124 120.799 234.843 120.862 236.297C118.99 243.636 120.712 250.098 120.285 257.382C118.65 270.52 108.143 279.676 100.559 289.424C98.6868 296.763 96.8145 304.102 94.2154 311.473C91.0396 322.502 90.0441 333.435 88.9618 344.061" stroke="#263238" stroke-miterlimit="10" stroke-linecap="round" stroke-linejoin="round"/>
<path d="M100.109 222.266C100.109 222.266 97.6281 227.03 96.6406 230.901C95.6531 234.772 90.6524 234.211 88.0691 236.621" stroke="#263238" stroke-miterlimit="10" stroke-linecap="round" stroke-linejoin="round"/>
<path d="M81.2437 215.449C81.2437 215.449 88.0456 217.85 92.0035 220.939C95.9614 224.028 98.8923 224.787 98.8923 224.787" stroke="#263238" stroke-miterlimit="10" stroke-linecap="round" stroke-linejoin="round"/>
<path d="M76.9065 198.582C76.9065 198.582 82.397 200.123 86.4655 198.187C86.4655 198.187 86.7657 194.822 87.5004 192.349" stroke="#263238" stroke-miterlimit="10" stroke-linecap="round" stroke-linejoin="round"/>
<path d="M87.7769 198.985C87.7769 198.985 87.8322 199.751 90.6367 199.783" stroke="#263238" stroke-miterlimit="10" stroke-linecap="round" stroke-linejoin="round"/>
<path d="M100.575 288.919C100.575 288.919 95.2186 293.777 91.948 302.53" stroke="#263238" stroke-miterlimit="10" stroke-linecap="round" stroke-linejoin="round"/>
<path d="M58.7444 217.977C58.4995 222.709 64.0532 239.528 65.7438 247.878C67.4344 256.236 68.0585 262.145 68.0585 262.145" stroke="#263238" stroke-miterlimit="10" stroke-linecap="round" stroke-linejoin="round"/>
</svg>
